<?xml version="1.0" standalone="no"?>
<!DOCTYPE svg PUBLIC "-//W3C//DTD SVG 1.1//EN" "http://www.w3.org/Graphics/SVG/1.1/DTD/svg11.dtd" >
<svg xmlns="http://www.w3.org/2000/svg">
<metadata>
Created by FontForge 20120731 at Wed Mar 15 14:03:23 2017
 By admin
</metadata>
<defs>
<font id="iconfont" horiz-adv-x="1041" >
  <font-face 
    font-family="iconfont"
    font-weight="500"
    font-stretch="normal"
    units-per-em="1024"
    panose-1="2 0 6 3 0 0 0 0 0 0"
    ascent="896"
    descent="-128"
    x-height="792"
    bbox="-0.367816 -138 1055 903"
    underline-thickness="0"
    underline-position="0"
    unicode-range="U+0078-E8B9"
  />
<missing-glyph horiz-adv-x="1024" 
 />
    <glyph glyph-name=".notdef" horiz-adv-x="1024" 
 />
    <glyph glyph-name=".notdef" horiz-adv-x="1024" 
 />
    <glyph glyph-name=".null" horiz-adv-x="0" 
 />
    <glyph glyph-name="nonmarkingreturn" horiz-adv-x="341" 
 />
    <glyph glyph-name="x" unicode="x" horiz-adv-x="1001" 
d="M281 543q-27 -1 -53 -1h-83q-18 0 -36.5 -6t-32.5 -18.5t-23 -32t-9 -45.5v-76h912v41q0 16 -0.5 30t-0.5 18q0 13 -5 29t-17 29.5t-31.5 22.5t-49.5 9h-133v-97h-438v97zM955 310v-52q0 -23 0.5 -52t0.5 -58t-10.5 -47.5t-26 -30t-33 -16t-31.5 -4.5q-14 -1 -29.5 -0.5
t-29.5 0.5h-32l-45 128h-439l-44 -128h-29h-34q-20 0 -45 1q-25 0 -41 9.5t-25.5 23t-13.5 29.5t-4 30v167h911zM163 247q-12 0 -21 -8.5t-9 -21.5t9 -21.5t21 -8.5q13 0 22 8.5t9 21.5t-9 21.5t-22 8.5zM316 123q-8 -26 -14 -48q-5 -19 -10.5 -37t-7.5 -25t-3 -15t1 -14.5
t9.5 -10.5t21.5 -4h37h67h81h80h64h36q23 0 34 12t2 38q-5 13 -9.5 30.5t-9.5 34.5q-5 19 -11 39h-368zM336 498v228q0 11 2.5 23t10 21.5t20.5 15.5t34 6h188q31 0 51.5 -14.5t20.5 -52.5v-227h-327z" />
    <glyph glyph-name="zhanku123" unicode="&#xe605;" horiz-adv-x="1024" 
d="M0 903h1042v-1041h-1042v1041zM886 415q-29 -16 -83 -22q82 70 102 131q34 104 2 207q-3 10 -14 12q-9 2 -16 -7q-87 -124 -214 -148q17 33 25.5 53t16 51.5t4.5 58.5q-1 11 -11 15h-6q-7 0 -12 -5q-61 -62 -116 -84.5t-124 -23.5q-70 -2 -133.5 -32.5t-109.5 -85.5
q-46 -54 -65.5 -121t-8.5 -135q17 -108 92 -183.5t184 -93.5q28 -4 55 -4q90 0 166 45.5t121 127.5q11 20 32 34q89 61 127 155q3 9 8 29l2 7q1 2 1 4q0 9 -7 14q-4 3 -10 3q-5 0 -8 -2v0zM157 304q7 -19 33 -34t45 -20t23 -5q-21 -21 -38.5 -23t-28.5 10.5t-19 29t-11.5 29
t-3.5 13.5zM366 245q7 1 19 3t46.5 8.5t64 15t63 23t53.5 31.5q-2 -5 -6 -13t-17.5 -29t-28 -38t-37.5 -32.5t-46 -19t-52.5 8t-58.5 42.5z" />
    <glyph glyph-name="iconfont" unicode="&#xe60a;" horiz-adv-x="1025" 
d="M2 896h1022v-1022h-1022v1022zM502 30q-22 13 -34 47t-22 43q-21 23 -85 49.5t-88 55.5q-38 44 -53.5 101t-8 113t36.5 108.5t73 89.5t108 54t135 5q51 -8 97.5 -40t77.5 -79.5t47.5 -102t8 -113.5t-42.5 -109q-17 -24 -46 -44.5t-55.5 -33t-57 -34t-50.5 -47.5
q-6 -7 -10 -23t-10.5 -27.5t-20.5 -12.5zM252 426q-2 -38 16 -63t45 -30.5t54 0t46 29t19 57.5q0 47 -36.5 74t-87.5 9q-35 -12 -44.5 -27.5t-11.5 -48.5zM634 329q70 -20 104 34q28 43 11 93q-18 53 -72 54q-20 0 -43 -8q-37 -13 -49.5 -51.5t2 -75.5t47.5 -46zM474 245
q12 -2 19 15t3.5 35.5t-15.5 19.5q-7 -7 -13 -16t-11.5 -20t-1.5 -20.5t19 -13.5zM536 245h14q13 22 0.5 44.5t-34.5 25.5q1 -9 0 -18t-0.5 -18.5t1.5 -16.5t6 -12t13 -5z" />
    <glyph glyph-name="dribbble" unicode="&#xe60f;" horiz-adv-x="1025" 
d="M2 896h1022v-1022h-1022v1022zM508.5 761q-96.5 0 -178.5 -48t-129.5 -129.5t-47.5 -178t47.5 -178.5t129.5 -129.5t178.5 -47.5t178.5 47.5t129.5 129.5t47.5 178.5t-47.5 178t-129.5 129.5t-178.5 48zM734 597q63 -74 70 -172q-113 6 -202 -3q-13 33 -25 58
q110 47 157 117zM509 701q106 0 188 -68q-48 -62 -145 -103q-52 96 -116 162q37 9 73 9zM375 669q65 -65 118 -160q-106 -32 -225 -32q-21 0 -46 1q16 62 56 112t97 79zM213 419q26 -1 51 -1q137 2 255 40q10 -22 20 -45q-17 -4 -27 -8q-76 -32 -134.5 -82.5t-90.5 -112.5
q-74 84 -74 195v14zM509 109q-102 0 -182 63q30 58 81 105t118 77q11 6 32 10q16 -46 28 -91q19 -72 27 -144q-51 -20 -104 -20zM669 156q-9 74 -28 146q-8 32 -21 70q86 8 183 0q-8 -67 -43.5 -123.5t-90.5 -92.5z" />
    <glyph glyph-name="MDpeise" unicode="&#xe610;" horiz-adv-x="1024" 
d="M0 896h511v-512h-511v512zM511 896h511v-512h-511v512zM0 384h511v-512h-511v512zM511 384h511v-512h-511v512z" />
    <glyph glyph-name="ai" unicode="&#xe8a2;" horiz-adv-x="1024" 
d="M146 896q-34 0 -58 -24t-24 -58v-860q0 -34 24 -58t58 -24h732q33 0 56.5 24t23.5 58v617l-302 325h-510zM958 570v-16h-204q-4 0 -11 2t-24 10.5t-30 19.5t-23.5 31.5t-9.5 44.5q0 -3 1 -9.5t6.5 -22.5t14.5 -28t28.5 -22t45.5 -10h206zM656 896v-234q0 -11 4.5 -25
t14 -30t30.5 -26.5t49 -10.5h204zM386 34q-9 0 -12 8l-14 35h-96l-14 -35q-3 -8 -12 -8q-4 0 -8 4t-4 8t1 5l66 165q5 13 19 13t19 -13l67 -165v-5q0 -5 -3.5 -8.5t-8.5 -3.5zM312 202l-40 -103h82zM448 34q-11 0 -11 11v173q0 11 13 11q11 0 11 -11v-173q0 -11 -13 -11z
" />
    <glyph glyph-name="audio" unicode="&#xe8a4;" horiz-adv-x="1024" 
d="M147 896q-33 0 -57 -24t-24 -58v-860q0 -34 24 -58t57 -24h731q34 0 58 24t24 58v617l-302 325h-511zM960 570v-16h-205q-4 0 -10.5 2t-24 10.5t-30.5 19.5t-23 31.5t-9 44.5q0 -3 0.5 -9.5t6 -22.5t15 -28t29 -22t45.5 -10h206zM658 896v-234q0 -11 4 -25t14 -30
t30.5 -26.5t48.5 -10.5h205zM541 352l-227 -30v-215q-21 6 -40 2q-24 -5 -38 -18.5t-9 -28.5t25 -21.5t44 -2.5q21 4 34.5 15.5t13.5 24.5v172l166 20v-132q-17 5 -40 0q-25 -5 -38.5 -18.5t-9 -28t25 -22t45.5 -2.5q22 5 35.5 17t12.5 25v243z" />
    <glyph glyph-name="excel" unicode="&#xe8a6;" horiz-adv-x="1024" 
d="M146 896q-34 0 -58 -24t-24 -58v-860q0 -34 24 -58t58 -24h732q34 0 58 24t24 58v617l-302 325h-512zM374.5 34q-4.5 0 -8.5 3l-59 80l-61 -80q-3 -3 -8 -3q-11 0 -11 11q0 5 2 6l62 82l-57 78q-4 3 -4 7q0 3 3.5 7t8.5 4q7 0 9 -5l56 -74l55 74q2 5 8 5q5 0 8.5 -3.5
t3.5 -7.5q0 -2 -0.5 -4t-0.5 -3l-59 -77l62 -83q3 -3 3 -6q0 -5 -4 -8t-8.5 -3zM534 35h-86q-7 0 -12.5 5.5t-5.5 12.5v165q0 11 13 11q11 0 11 -11v-162h80q5 0 8.5 -3t3.5 -7q0 -11 -12 -11zM646 32q-40 0 -67 24q-3 2 -3 8q0 13 11 13q3 0 7 -3q23 -21 54 -21q23 0 34 10
t11 23q0 17 -18 26t-39 12.5t-39 16t-18 35.5q0 24 18.5 39t47.5 15q37 0 61 -20q4 -3 4 -8t-3 -9t-8 -4q-3 0 -6 3q-21 16 -50 16q-18 0 -29 -8t-11 -22.5t18 -22.5t39 -11.5t39 -17.5t18 -38q0 -23 -17.5 -39.5t-53.5 -16.5zM960 570v-16h-205q-4 0 -11 2t-24.5 10.5
t-30.5 19.5t-23.5 31.5t-9.5 44.5q0 -3 1 -9.5t6.5 -22.5t14.5 -28t28.5 -22t45.5 -10h208zM656 896v-234q0 -11 4.5 -25t14.5 -30t31 -26.5t49 -10.5h205z" />
    <glyph glyph-name="exe" unicode="&#xe8a7;" horiz-adv-x="1024" 
d="M146 896q-34 0 -58 -24t-24 -58v-860q0 -34 24 -58t58 -24h732q34 0 58 24t24 58v617l-302 325h-512zM960 570v-16h-205q-4 0 -10.5 2t-24 10.5t-30.5 19.5t-23.5 31t-10.5 44q0 -4 1 -10t6.5 -22t14.5 -28t28.5 -21.5t45.5 -9.5h208zM658 896v-234q0 -11 4 -25t14 -30
t30.5 -26.5t48.5 -10.5h205zM344 34h-101q-7 0 -12 5t-5 12v157q0 7 5 12.5t12 5.5h101q4 0 7 -3.5t3 -8.5q0 -9 -10 -9h-94v-63h91q11 0 11 -11q0 -9 -11 -9h-91v-68h94q4 0 7 -3t3 -6q0 -5 -3 -8t-7 -3zM538 32q-8 0 -10 3l-59 80l-61 -80q-2 -3 -8 -3q-11 0 -11 11
q0 5 1 7l63 81l-58 79q-3 3 -3 6q0 4 3.5 7.5t9 3.5t8.5 -5l56 -73l54 73q3 5 10 5q4 0 7.5 -3t3.5 -8t-2 -6l-57 -77l61 -83q3 -4 3 -7q0 -4 -4 -7.5t-7 -3.5zM709 34h-99q-8 0 -13 5t-5 12v157q0 7 5 12.5t13 5.5h99q11 0 11 -12q0 -9 -11 -9h-93v-63h91q11 0 11 -11
q0 -9 -11 -9h-91v-68h93q4 0 7.5 -2.5t3.5 -6.5q0 -11 -11 -11z" />
    <glyph glyph-name="html" unicode="&#xe8aa;" horiz-adv-x="1024" 
d="M146 896q-34 0 -57 -24t-23 -58v-860q0 -34 23 -58t57 -24h732q34 0 58 24t24 58v617l-302 325h-512zM960 570v-16h-205q-4 0 -10.5 2t-24 10.5t-30.5 19.5t-23.5 31.5t-10.5 44.5q0 -3 1 -9.5t7 -22.5t15 -28t29 -22t46 -10h206zM658 896v-234q0 -11 4 -25t14 -30
t30.5 -26.5t48.5 -10.5h205zM366 83h-4l-122 55q-13 5 -13 20q0 14 13 20l122 54l2 1l2 1q6 0 10.5 -4.5t4.5 -10.5q0 -9 -8 -14l-112 -48l112 -47q8 -5 8 -14q0 -13 -15 -13zM502 259l-70 -213q-5 -9 -14 -9q-7 0 -11.5 4t-4.5 10q0 1 0.5 2.5t0.5 2.5l71 211q5 11 14 11
q14 0 14 -14v-5zM666 138l-122 -55h-5q-14 0 -14 13q0 9 8 14l113 47l-113 48q-8 5 -8 14q0 6 4 10.5t10 4.5q1 0 2.5 -1t2.5 -1l122 -54q12 -6 12 -20q0 -15 -12 -20z" />
    <glyph glyph-name="image" unicode="&#xe8ab;" horiz-adv-x="1024" 
d="M146 896q-34 0 -57 -24t-23 -58v-862q0 -34 23 -57t57 -23h732q34 0 58 23.5t24 56.5v618l-302 326h-512zM960 570v-16h-205q-4 0 -10.5 2t-24 10.5t-30.5 19.5t-23.5 31.5t-10.5 44.5q0 -3 1 -9.5t7 -22.5t15 -28t29 -22t46 -10h206zM658 896v-234q0 -11 4 -25t14 -30
t30.5 -26.5t48.5 -10.5h205zM226 37v334h334v-334h-334zM526 338h-267v-202h267v202zM373 203l62 85l21 -34l21 7l16 -90h-210l56 53zM312 262q-11 0 -19 7t-8 17t8 17t19 7t18.5 -7t7.5 -17t-7.5 -17t-18.5 -7z" />
    <glyph glyph-name="link" unicode="&#xe8ac;" horiz-adv-x="1024" 
d="M147 896q-33 0 -57 -24t-24 -58v-860q0 -34 23.5 -58t57.5 -24h731q34 0 58 24t24 58v617l-302 325h-511zM960 570v-16h-205q-4 0 -10.5 2t-24 10.5t-30.5 19.5t-23.5 31.5t-10.5 44.5q0 -3 1 -9.5t7 -22.5t15 -28t29 -22t46 -10h206zM658 896v-234q0 -11 4 -25t14 -30
t30.5 -26.5t48.5 -10.5h205zM517 326q-25 26 -61 26t-61 -26l-49 -49q-24 -24 -24 -59.5t24 -60.5q6 -6 14 -6t14 6q14 13 0 27q-13 14 -13 33t13 33l50 49q13 13 32 13t32 -13q13 -14 13 -33t-13 -32l-22 -24q8 -28 6 -48l43 43q25 25 25.5 60.5t-23.5 60.5zM392 230
q-5 -4 -5 -12.5t5 -14.5q14 -13 14 -32.5t-14 -32.5l-48 -48q-13 -14 -32 -14t-34 14q-13 13 -13 31.5t13 32.5l24 24q-8 22 -6 49l-45 -45q-25 -25 -25 -60.5t25 -60.5t60.5 -25t59.5 25l50 49q25 26 25 60.5t-25 59.5q-6 6 -14.5 6t-14.5 -6z" />
    <glyph glyph-name="pdf" unicode="&#xe8af;" horiz-adv-x="1024" 
d="M146 896q-34 0 -58 -24t-24 -58v-860q0 -34 24 -58t58 -24h732q34 0 58 24t24 58v617l-302 325h-512zM960 570v-16h-205q-4 0 -10.5 2t-24 10.5t-30.5 19.5t-23 31t-9 44q0 -4 0.5 -10t6 -22t15 -28t29 -21.5t45.5 -9.5h206zM658 896v-234q0 -12 4 -26t14 -30t30.5 -26
t48.5 -10h205zM302 112h-52v-66q0 -11 -13 -11q-11 0 -11 11v164q0 7 5 12t12 5h59q28 0 44.5 -17t16.5 -40q0 -25 -16.5 -41.5t-44.5 -16.5zM301 206h-51v-73h51q17 0 27.5 10t10.5 26.5t-10.5 26.5t-27.5 10zM467 35h-48q-7 0 -12 5.5t-5 12.5v157q0 7 5 12t12 5h48
q44 0 71.5 -27t27.5 -69q0 -41 -27 -68.5t-72 -27.5zM467 206h-41v-148h41q34 0 54 21.5t20 53.5q1 31 -19 52t-55 21zM728 206h-93v-62h91q10 0 10 -11q0 -10 -10 -10h-91v-77q0 -11 -13 -11q-11 0 -11 11v164q0 7 5.5 12t12.5 5h99q10 0 10 -11q1 -4 -2 -7t-8 -3z" />
    <glyph glyph-name="ppt" unicode="&#xe8b0;" horiz-adv-x="1024" 
d="M146 896q-34 0 -58 -24t-24 -58v-860q0 -34 24 -58t58 -24h732q34 0 58 24t24 58v617l-302 325h-512zM960 570v-16h-205q-4 0 -10.5 2t-24 10.5t-30.5 19.5t-23.5 31.5t-10.5 44.5q0 -3 1 -9.5t7 -22.5t15 -28t29 -22t46 -10h206zM658 896v-234q0 -11 4 -25t14 -30
t30.5 -26.5t48.5 -10.5h205zM304 112h-54v-67q0 -11 -12 -11q-5 0 -8.5 3t-3.5 8v165q0 7 5 12t12 5h61q28 0 43.5 -16t15.5 -41t-16 -41.5t-43 -16.5zM301 206h-51v-73h51q16 0 27 10.5t11 26.5t-10.5 26t-27.5 10zM480 112h-54v-67q0 -11 -11.5 -11t-11.5 11v165
q0 7 4.5 12t11.5 5h61q28 0 43.5 -16t15.5 -41t-15.5 -41.5t-43.5 -16.5zM477 206h-50v-73h50q16 0 27 10.5t11 26.5t-10.5 26t-27.5 10zM702 206h-52v-161q0 -11 -12 -11q-5 0 -8.5 3t-3.5 8v161h-52q-11 0 -11 12q0 3 3.5 6t7.5 3h128q12 0 12 -11q0 -4 -3.5 -7t-8.5 -3z
" />
    <glyph glyph-name="psd" unicode="&#xe8b1;" horiz-adv-x="1024" 
d="M146 894q-34 0 -58 -23t-24 -57v-862q0 -33 24 -56.5t58 -23.5h732q34 0 58 23.5t24 56.5v618l-302 324h-512zM960 570v-16h-205q-4 0 -10.5 2t-24 10.5t-30.5 19.5t-23.5 31.5t-10.5 44.5q0 -3 1 -9.5t7 -22.5t15 -28t29 -22t46 -10h206zM658 896v-234q0 -11 4 -25
t14 -30t30.5 -26.5t48.5 -10.5h205zM304 112h-54v-67q0 -11 -12 -11q-5 0 -8.5 3t-3.5 8v165q0 7 5 12t12 5h61q28 0 43.5 -16t15.5 -41t-16 -41.5t-43 -16.5zM301 206h-51v-73h51q16 0 27 10.5t11 26.5t-10.5 26t-27.5 10zM464 32q-41 0 -67 24q-3 3 -3 8t3 9t8 4t6 -3
q24 -21 55 -21q23 0 33.5 10t10.5 23q0 17 -17.5 26t-39 12.5t-39 16.5t-17.5 37q0 23 18.5 37.5t46.5 14.5q37 0 63 -20q3 -4 3 -8q0 -12 -11 -12q-5 0 -7 2q-19 18 -49 18q-17 0 -28.5 -9t-11.5 -22q0 -14 18 -22.5t39.5 -12t39.5 -18t18 -38.5q0 -23 -17.5 -39.5
t-54.5 -16.5zM643 35h-48q-7 0 -12 5.5t-5 12.5v157q0 7 5 12t12 5h48q45 0 72 -27t27 -68.5t-27 -69t-72 -27.5zM643 206h-41v-150h41q35 0 55 21.5t20 54t-20 53.5t-55 21z" />
    <glyph glyph-name="video" unicode="&#xe8b4;" horiz-adv-x="1024" 
d="M147 896q-33 0 -57 -24t-24 -58v-860q0 -34 24 -58t57 -24h731q34 0 58 24t24 58v617l-302 325h-511zM960 570v-16h-205q-4 0 -10.5 2t-24 10.5t-30.5 19.5t-23.5 31.5t-10.5 44.5q0 -3 1 -9.5t7 -22.5t15 -28t29 -22t46 -10h206zM658 896v-234q0 -11 4 -25t14 -30
t30.5 -26.5t48.5 -10.5h205zM456 168q0 -12 -6 -16q-5 -5 -26.5 -21t-69.5 -44.5t-95 -48.5q-1 -1 -8 -1q-3 0 -9 3q-9 4 -12 16l-0.5 6.5t-1 17.5t-1 24t-1 30.5t-0.5 33.5t0.5 33t1 30.5t1 24t1 17t0.5 7.5q3 9 12 16q6 3 9 3q5 0 8 -3q47 -19 95 -47.5t69 -44.5t27 -22
q6 -4 6 -14z" />
    <glyph glyph-name="txt" unicode="&#xe8b5;" horiz-adv-x="1024" 
d="M147 896q-34 0 -57.5 -23.5t-23.5 -56.5v-862q0 -34 23.5 -58t57.5 -24h731q34 0 58 24t24 58v617l-302 325h-511zM960 571v-16h-205q-4 1 -10.5 3t-24 10t-30.5 18.5t-23 31t-9 44.5q0 -3 0.5 -9.5t6 -22t15 -27.5t29 -22t45.5 -10h206zM658 896v-232q0 -12 4 -26
t14 -30t30.5 -26.5t48.5 -10.5h205zM365 208h-53v-162q0 -11 -13 -11q-11 0 -11 11v162h-53q-9 0 -9 10q0 4 2.5 7.5t6.5 3.5h130q4 0 6.5 -3.5t2.5 -7.5q0 -10 -9 -10zM552 35q-8 0 -10 3l-59 80l-61 -80q-1 -3 -8 -3q-11 0 -11 11q0 5 2 7l62 81l-57 79q-2 1 -2 6
q0 11 11 11q5 0 10 -4l54 -74l55 74q4 4 9 4q11 0 11 -11q0 -5 -1 -6l-58 -77l63 -83q0 -1 0.5 -3.5t0.5 -3.5q0 -11 -11 -11zM731 208h-53v-162q0 -11 -12 -11t-12 11v162h-52q-10 0 -10 10q0 4 3 7.5t7 3.5h129q4 0 7 -3.5t3 -7.5q0 -10 -10 -10z" />
    <glyph glyph-name="unknown" unicode="&#xe8b6;" horiz-adv-x="1024" 
d="M146 896q-34 0 -58 -24t-24 -58v-860q0 -34 24 -58t58 -24h732q34 0 58 24t24 58v617l-302 325h-512zM960 570v-16h-205q-4 0 -10.5 2t-24 10.5t-30.5 19.5t-23.5 31.5t-10.5 44.5q0 -3 1 -9.5t7 -22.5t15 -28t29 -22t46 -10h206zM658 896v-234q0 -11 4 -25t14 -30
t30.5 -26.5t48.5 -10.5h205z" />
    <glyph glyph-name="word" unicode="&#xe8b7;" horiz-adv-x="1024" 
d="M146 896q-34 0 -58 -23.5t-24 -56.5v-862q0 -34 24 -58t58 -24h732q34 0 58 24t24 58v617l-302 325h-512zM960 570v-16h-205q-4 0 -10.5 2t-24 10.5t-30.5 19.5t-23.5 31.5t-10.5 44.5q0 -3 1 -9.5t7 -22.5t15 -28t29 -22t46 -10h206zM658 896v-234q0 -11 4 -25t14 -30
t30.5 -26.5t48.5 -10.5h205zM291 34h-48q-7 0 -12 5t-5 12v159q0 7 5 11.5t12 4.5h48q45 0 72 -27.5t27 -69t-27 -68.5t-72 -27zM291 205h-41v-149h41q35 0 55 21t20 53t-20 53.5t-55 21.5zM523 30q-42 0 -69 28.5t-27 71t27 71t69 28.5t68.5 -28t26.5 -71t-26.5 -71.5
t-68.5 -28.5zM523 208q-32 0 -51 -22t-19 -56t19 -55.5t51 -21.5q31 0 51 21.5t20 55t-20 56t-51 22.5zM818 202q3 -4 3 -8q0 -12 -11 -12q-5 0 -8 4q-18 22 -48 22q-32 0 -53 -22t-21 -56t21 -55.5t53 -21.5q29 0 48 21q2 4 8 4q4 0 7.5 -3.5t3.5 -8.5q0 -2 -3 -8
q-25 -28 -64 -28q-43 0 -71.5 28t-28.5 71.5t28.5 71.5t71.5 28q39 0 64 -27z" />
    <glyph glyph-name="zip" unicode="&#xe8b8;" horiz-adv-x="1024" 
d="M146 896q-34 0 -58 -23.5t-24 -56.5v-862q0 -34 24 -58t58 -24h732q34 0 58 24t24 58v617l-302 325h-512zM960 570v-16h-205q-4 0 -10.5 2t-24 10.5t-30.5 19.5t-23.5 31.5t-10.5 44.5q0 -3 1 -9.5t7 -22.5t15 -28t29 -22t46 -10h206zM658 896v-234q0 -11 4 -25t14 -30
t30.5 -26.5t48.5 -10.5h205zM358 34h-120q-5 0 -8.5 3.5t-3.5 8.5t3 8l105 151h-99q-4 0 -6.5 3t-2.5 8q0 4 3 7t6 3h120q11 0 11 -13q0 -7 -1 -8l-107 -151h100q5 0 8.5 -2.5t3.5 -6.5q0 -11 -12 -11zM422 32q-11 0 -11 11v173q0 11 13 11q11 0 11 -11v-173q0 -11 -13 -11z
M565 110h-53v-67q0 -4 -4 -7.5t-9 -3.5q-11 0 -11 11v165q0 7 4.5 12.5t11.5 5.5h61q28 0 44.5 -17t16.5 -41t-16.5 -41t-44.5 -17zM562 205h-50v-74h50q17 0 27.5 10t10.5 27q0 16 -11 26.5t-27 10.5z" />
    <glyph glyph-name="xml" unicode="&#xe8b9;" horiz-adv-x="1024" 
d="M146 896q-34 0 -58 -23.5t-24 -56.5v-862q0 -34 24 -58t58 -24h732q34 0 58 24t24 58v617l-302 325h-512zM960 570v-16h-205q-4 0 -10.5 2t-24 10.5t-30.5 19.5t-23.5 31.5t-10.5 44.5q0 -3 1 -9.5t7 -22.5t15 -28t29 -22t46 -10h206zM658 896v-234q0 -11 4 -25t14 -30
t30.5 -26.5t48.5 -10.5h205zM374 35q-6 0 -9 3l-59 80l-60 -80q-3 -3 -9 -3q-11 0 -11 11q0 5 1 7l63 81l-58 79q-2 1 -2 6q0 4 3.5 7.5t8.5 3.5q4 0 9 -4l55 -74l54 74q5 4 10 4q11 0 11 -11q0 -5 -2 -6l-57 -77l62 -83q2 -2 2 -7q0 -11 -12 -11zM605 35q-11 0 -11 11v149
l-64 -157q-4 -3 -7 -3t-6 3l-64 157v-149q0 -11 -11 -11q-13 0 -13 11v165q0 8 6 13.5t15 5.5q14 0 19 -12l54 -135l55 135q5 12 19 12q8 0 14.5 -5.5t6.5 -13.5v-165q0 -11 -13 -11zM774 37h-88q-7 0 -12 5t-5 12v165q0 5 4 8t9 3q11 0 11 -11v-161h81q4 0 7 -3t3 -7
q0 -5 -3 -8t-7 -3z" />
    <glyph glyph-name="sun" unicode="&#xe603;" horiz-adv-x="1028" 
d="M258 386q0 -106 75 -181t181 -75t181 75t75 181t-75 181t-181 75t-181 -75t-75 -181zM514 725q-14 0 -23 9.5t-9 22.5v109q0 13 8.5 21.5t21.5 8.5h2q13 0 22.5 -9.5t9.5 -22.5v-109q0 -11 -9.5 -20.5t-22.5 -9.5zM514 -128q-14 0 -23 9.5t-9 22.5v109q0 13 9.5 22.5
t22.5 9.5h2q13 0 22.5 -9.5t9.5 -22.5v-109q-1 -13 -11 -22.5t-23 -9.5zM853 386q0 14 9.5 23t22.5 9h109q13 0 22.5 -9.5t9.5 -22.5v-2q0 -13 -9.5 -22.5t-22.5 -9.5h-109q-13 2 -22.5 12t-9.5 22zM0 386q0 14 9.5 23t22.5 9h109q13 0 22.5 -9.5t9.5 -22.5v-2
q0 -13 -9.5 -22.5t-22.5 -9.5h-109q-13 2 -22.5 12t-9.5 22zM742 649q-9 9 -9.5 22t7.5 22l77 77q10 10 22.5 10t22.5 -10v-2q9 -10 9 -22.5t-9 -22.5l-77 -77q-8 -8 -21.5 -7.5t-21.5 10.5zM138.5 44.5q-9.5 9.5 -10 23.5t8.5 22l76 76q10 10 23 10t22 -10l2 -2
q10 -9 10 -22t-10 -23l-77 -76q-9 -8 -22 -8t-22.5 9.5zM740.5 168.5q9.5 9.5 23 10t21.5 -7.5l77 -77q9 -10 9 -22.5t-9 -22.5l-2 -2q-10 -10 -22.5 -10t-22.5 10l-77 77q-8 9 -7.5 22t10 22.5zM137 772q9 10 23 10.5t21 -8.5l77 -76q10 -10 10 -23t-10 -22l-2 -2
q-10 -10 -22.5 -10t-22.5 10l-74 76q-8 10 -8 23t8 22z" />
    <glyph glyph-name="icon-test" unicode="&#xe604;" horiz-adv-x="1024" 
d="M774 62h7q92 22 155.5 78t81.5 131q13 60 -3 122q-20 81 -85 135.5t-151 62.5h-30q-39 70 -107.5 110.5t-148.5 40.5q-107 0 -189 -69t-99 -172q-87 -4 -146 -66.5t-59 -150.5q0 -91 65 -155.5t157 -64.5h525zM747 128h-525q-66 0 -112 46t-46 110q0 65 46 111.5
t112 46.5h4l34 -3l2 32q7 90 73 151t156 61q67 0 123.5 -37t85.5 -98l10 -21l24 2q13 2 38 2q66 -6 114.5 -47.5t64.5 -103.5q15 -43 3 -92q-13 -55 -62.5 -98t-121.5 -62h-23z" />
    <glyph glyph-name="icon-test1" unicode="&#xe606;" horiz-adv-x="1025" 
d="M433 749q-20 7 -17 28l19 74q7 21 28 17q20 -7 17 -27l-19 -75q-2 -9 -10 -14t-18 -3zM13 606q7 20 28 17l74 -19q21 -7 17 -28q-3 -10 -11.5 -15t-15.5 -2l-75 19q-10 2 -15 10t-2 18zM578 653q-5 8 -2 17.5t11 14.5l66 38q8 5 17.5 2.5t14.5 -10.5t2 -17.5t-11 -14.5
l-66 -39q-21 -10 -32 9zM47 343.5q-5 8.5 -2.5 18t10.5 13.5l67 39q8 5 17.5 2t14 -11t2 -17.5t-10.5 -14.5l-66 -38q-8 -5 -17.5 -2.5t-14.5 11zM179 849q8 5 17.5 2.5t14.5 -10.5l39 -67q4 -8 1.5 -17.5t-10.5 -14t-17.5 -2t-14.5 10.5l-38 66q-11 21 8 32zM427 715
q-87 24 -164.5 -21.5t-100.5 -132.5q-22 -81 18 -156t119 -102v6q0 29 21 54q-12 3 -38 19v2q0 13 20 34t49.5 45.5t38.5 35.5q29 31 120 66q9 -23 11 -30q12 7 27 7q19 0 39 -13q-8 67 -52 118.5t-108 67.5zM779 -58h-493q-85 0 -145 60t-60 145q0 80 54.5 139.5
t133.5 65.5q18 97 93 160.5t173 63.5q74 0 138 -38.5t99 -102.5h28q78 -6 138 -57t80 -126q15 -60 2 -113q-16 -69 -74.5 -121.5t-143.5 -72.5l-6 -3h-17zM789 4h2q66 18 111 57.5t58 92.5q7 30 -2 83q-15 57 -60.5 95.5t-106.5 42.5h-36l-21 -2l-9 20q-25 57 -77 91
t-115 34q-82 0 -143 -56.5t-68 -139.5l-2 -28l-32 3h-4q-61 0 -103 -43.5t-42 -104.5q0 -59 43 -102t104 -43h486h17z" />
    <glyph glyph-name="icon-test2" unicode="&#xe607;" horiz-adv-x="1025" 
d="M459 -30q-10 -31 -37 -47t-55 -8q-27 9 -39.5 37.5t-3.5 60.5q11 33 101 106q3 4 7 2.5t5 -6.5q11 -31 20 -77.5t2 -67.5zM715 -30q-10 -31 -37 -47t-55 -8q-27 9 -39.5 37.5t-3.5 60.5q11 33 101 106q3 4 7 2.5t5 -6.5q11 -31 20 -77.5t2 -67.5zM785 169
q92 22 154.5 78.5t80.5 132.5q12 55 -5 121q-20 82 -85.5 136.5t-150.5 62.5h-30q-39 70 -107.5 110.5t-148.5 40.5q-106 2 -188.5 -66.5t-101.5 -172.5q-86 -8 -144.5 -71t-58.5 -151q0 -91 65 -155t157 -64h546zM768 235h-546q-66 0 -112 45.5t-46 109.5q0 66 46 112
t112 46h4l34 -2l2 32q8 89 75 150t156 61q67 0 123.5 -36.5t85.5 -97.5l11 -21l23 2q13 2 38 2q66 -7 115 -48t65 -104q14 -43 2 -91q-13 -57 -58 -99t-115 -61h-15z" />
    <glyph glyph-name="icon-test3" unicode="&#xe608;" horiz-adv-x="1025" 
d="M580 -30q-9 -31 -36.5 -47t-54.5 -8q-28 9 -40.5 37.5t-2.5 60.5q10 33 100 106q3 4 7 2.5t6 -6.5q11 -31 19.5 -77.5t1.5 -67.5zM785 169q92 22 154.5 78.5t80.5 132.5q12 55 -5 121q-20 82 -85.5 136.5t-150.5 62.5h-30q-39 70 -107.5 110.5t-148.5 40.5
q-106 2 -188.5 -66.5t-101.5 -172.5q-86 -8 -144.5 -71t-58.5 -151q0 -91 65 -155t157 -64h546zM768 235h-546q-66 0 -112 45.5t-46 109.5q0 66 46 112t112 46h4l34 -2l2 32q8 89 75 150t156 61q67 0 123.5 -36.5t85.5 -97.5l11 -21l23 2q13 2 38 2q66 -7 115 -48t65 -104
q14 -43 2 -91q-13 -57 -58 -99t-115 -61h-15z" />
    <glyph glyph-name="icon-test4" unicode="&#xe609;" horiz-adv-x="1027" 
d="M777 154l8 4q91 22 155 79t82 132q13 57 -2 124q-21 81 -86 135.5t-151 62.5q-4 0 -10.5 0.5t-11 0.5t-8.5 -1q-38 71 -107 112.5t-149 41.5q-106 -2 -187.5 -70.5t-100.5 -172.5q-84 -7 -143.5 -73.5t-59.5 -153.5q0 -92 65 -159t157 -67h519zM747 213h-519
q-65 0 -111.5 48t-46.5 114t46.5 114.5t111.5 48.5q1 0 2.5 0.5t2.5 -0.5l34 -3l2 32q6 90 72 151t156 61q67 0 123.5 -37t85.5 -98l11 -21l23 2q13 2 39 2q65 -6 114 -47.5t65 -103.5q14 -43 2 -92q-13 -56 -64 -101.5t-122 -62.5zM550 -58q-9 -31 -36.5 -47t-54.5 -8
q-28 10 -40.5 38t-2.5 60q10 33 100 107q3 3 7 1.5t6 -6.5q12 -26 21 -74t0 -71zM804 -58q-9 -31 -36.5 -47t-54.5 -8q-28 10 -40.5 38t-2.5 60q10 33 100 107q3 3 7 1.5t6 -6.5q11 -24 20 -72.5t1 -72.5zM299 -58q-10 -31 -37 -47t-55 -8q-27 8 -39.5 37t-3.5 61
q11 33 101 107q3 3 7 1.5t5 -6.5q11 -28 20 -75t2 -70z" />
    <glyph glyph-name="icon-test5" unicode="&#xe60b;" horiz-adv-x="1027" 
d="M785 149l2 2q91 23 153.5 79.5t81.5 132.5q11 52 -4 123q-21 82 -86.5 136.5t-150.5 62.5q-4 0 -10.5 0.5t-11 0.5t-8.5 -1q-38 70 -107 110.5t-149 40.5q-107 0 -188.5 -69t-99.5 -172q-85 -8 -144 -72t-59 -152q-1 -91 63 -156.5t157 -65.5h544h17zM768 213h-544
q-65 0 -111.5 47t-46.5 111q0 66 46.5 113t111.5 47h4l34 -2l3 32q6 89 72 150t156 61q67 0 123.5 -36.5t85.5 -97.5l11 -21l23 2q13 2 38 2q66 -7 115 -48t65 -104q14 -43 2 -91q-13 -57 -58.5 -100.5t-114.5 -62.5zM371 -43q-9 -31 -36.5 -47t-55.5 -8q-27 10 -39.5 38
t-2.5 60q10 33 100 107q3 3 7 1.5t6 -6.5q11 -30 19.5 -76.5t1.5 -68.5zM787 -43q-9 -31 -36.5 -47t-55.5 -8q-27 10 -39 38t-1 60q10 33 100 107q3 3 7 1.5t6 -6.5q31 -109 19 -145zM544 102l-109 -111q-1 -1 0 -3.5t2 -2.5l49 2q5 0 5 -4l-15 -83q0 -4 2.5 -4.5t3.5 2.5
l111 115q2 1 1 3.5t-3 2.5l-47 -2q-4 0 -4 4l13 81h-9z" />
    <glyph glyph-name="icon-test6" unicode="&#xe60c;" horiz-adv-x="1027" 
d="M301 -62q-6 -20 -24 -30.5t-36 -5.5q-18 6 -26 24.5t-2 39.5q5 14 26.5 35t39.5 35q2 2 5.5 1t3.5 -3q21 -69 13 -96zM742 -6q-6 -21 -23.5 -31.5t-35.5 -5.5q-18 7 -26 25.5t-2 38.5q4 14 25.5 35.5t40.5 35.5q2 1 5.5 0t3.5 -2q23 -70 12 -96zM785 149l2 2
q91 23 153.5 79.5t81.5 132.5q11 52 -4 123q-21 82 -86.5 136.5t-150.5 62.5q-4 0 -10.5 0.5t-11 0.5t-8.5 -1q-38 70 -107 110.5t-149 40.5q-107 0 -188.5 -69t-99.5 -172q-85 -8 -144 -72t-59 -152q-1 -91 63 -156.5t157 -65.5h544h17zM768 213h-544q-65 0 -111.5 47
t-46.5 111q0 66 46.5 113t111.5 47h4l34 -2l3 32q6 89 72 150t156 61q67 0 123.5 -36.5t85.5 -97.5l11 -21l23 2q13 2 38 2q66 -7 115 -48t65 -104q14 -43 2 -91q-13 -57 -58.5 -100.5t-114.5 -62.5zM514 107l-109 -113q-1 -2 0 -4.5t2 -2.5l50 2q4 0 4 -4l-15 -83
q0 -3 2.5 -4t3.5 2l111 115q2 2 1 4t-3 2l-47 -2q-4 0 -4 4l13 82q-6 5 -9 2zM373 45h-40q-11 0 -11 10v41q0 11 11 11h40q11 0 11 -11v-41q0 -10 -11 -10zM619 -96h-43q-11 0 -11 11v42q0 11 11 11h43q10 0 10 -11v-42q0 -11 -10 -11z" />
    <glyph glyph-name="icon-test7" unicode="&#xe60d;" horiz-adv-x="1027" 
d="M126 -49q-18 18 -19 40.5t15 38.5t38.5 13.5t40.5 -20.5q21 -21 36 -102q0 -4 -2 -6t-5 0q-23 2 -57 12.5t-47 23.5zM873 -49q17 18 18.5 40.5t-14.5 38.5t-38.5 13.5t-40.5 -20.5q-22 -21 -36 -102q0 -10 6 -6q23 2 57 12.5t48 23.5zM785 149l2 2q91 23 153.5 79.5
t81.5 132.5q11 52 -4 123q-21 82 -86.5 136.5t-150.5 62.5q-4 0 -10.5 0.5t-11 0.5t-8.5 -1q-38 70 -107 110.5t-149 40.5q-107 0 -188.5 -69t-99.5 -172q-85 -8 -144 -72t-59 -152q-1 -91 63 -156.5t157 -65.5h544h17zM768 213h-544q-65 0 -111.5 47t-46.5 111
q0 66 46.5 113t111.5 47h4l34 -2l3 32q6 89 72 150t156 61q67 0 123.5 -36.5t85.5 -97.5l11 -21l23 2q13 2 38 2q66 -7 115 -48t65 -104q14 -43 2 -91q-13 -57 -58.5 -100.5t-114.5 -62.5zM465 -100q-13 4 -18.5 15.5t-2.5 24.5l49 152q5 12 16 18t24 3q13 -5 19 -16.5
t3 -23.5l-49 -152q-5 -14 -17 -20t-24 -1zM311 -96q-12 5 -18 16.5t-3 24.5l28 85q5 13 16 18.5t24 2.5q13 -5 19 -16t3 -24l-28 -86q-5 -12 -16.5 -18t-24.5 -3zM640 -96q-13 5 -19 16.5t-2 24.5l27 85q5 13 16.5 18.5t24.5 2.5q13 -5 18.5 -16t2.5 -24l-27 -86
q-5 -12 -17 -18t-24 -3z" />
    <glyph glyph-name="icon-test8" unicode="&#xe60e;" horiz-adv-x="1027" 
d="M785 149l2 2q91 23 153.5 79.5t81.5 132.5q11 52 -4 123q-21 82 -86.5 136.5t-150.5 62.5q-4 0 -10.5 0.5t-11 0.5t-8.5 -1q-38 70 -107 110.5t-149 40.5q-107 0 -188.5 -69t-99.5 -172q-85 -8 -144 -72t-59 -152q-1 -91 63 -156.5t157 -65.5h544h17zM768 213h-544
q-65 0 -111.5 47t-46.5 111q0 66 46.5 113t111.5 47h4l34 -2l3 32q6 89 72 150t156 61q67 0 123.5 -36.5t85.5 -97.5l11 -21l23 2q13 2 38 2q66 -7 115 -48t65 -104q14 -43 2 -91q-13 -57 -58.5 -100.5t-114.5 -62.5zM471.5 -100.5q-12.5 4.5 -18.5 16t-3 24.5l49 152
q5 12 16.5 18t24.5 3q12 -5 18 -16.5t3 -23.5l-49 -154q-5 -13 -16.5 -18.5t-24 -1zM621 -100.5q-13 4.5 -19 16t-3 24.5l50 152q4 12 15.5 18t24.5 3q13 -5 19 -16.5t2 -23.5l-49 -154q-5 -13 -16 -18.5t-24 -1zM322 -100.5q-13 4.5 -18.5 16t-2.5 24.5l49 152q5 12 16 18
t24 3q13 -5 19 -16.5t3 -23.5l-49 -154q-5 -13 -16.5 -18.5t-24.5 -1zM183 -96q-12 5 -18 16.5t-3 24.5l28 85q5 13 16 18.5t24 2.5q13 -5 19 -16t3 -24l-28 -86q-5 -12 -16.5 -18t-24.5 -3zM781 -96q-13 5 -19 16.5t-3 24.5l28 85q5 13 16.5 18.5t24.5 2.5q12 -5 18 -16
t3 -24l-28 -86q-4 -12 -15.5 -18t-24.5 -3z" />
    <glyph glyph-name="icon-test9" unicode="&#xe611;" horiz-adv-x="1027" 
d="M785 149l2 2q91 23 153.5 79.5t81.5 132.5q11 52 -4 123q-21 82 -86.5 136.5t-150.5 62.5q-4 0 -10.5 0.5t-11 0.5t-8.5 -1q-38 70 -107 110.5t-149 40.5q-107 0 -188.5 -69t-99.5 -172q-85 -8 -144 -72t-59 -152q-1 -91 63 -156.5t157 -65.5h544h17zM768 213h-544
q-65 0 -111.5 47t-46.5 111q0 66 46.5 113t111.5 47h4l34 -2l3 32q6 89 72 150t156 61q67 0 123.5 -36.5t85.5 -97.5l11 -21l23 2q13 2 38 2q66 -7 115 -48t65 -104q14 -43 2 -91q-13 -57 -58.5 -100.5t-114.5 -62.5zM514.5 -96q-6.5 0 -12 5.5t-5.5 11.5v137q0 6 5.5 11.5
t12 5.5t11.5 -5.5t5 -11.5v-137q0 -6 -5 -11.5t-11.5 -5.5zM429 -10.5q0 6.5 5 11.5t12 5h136q7 0 12 -5t5 -11.5t-5 -12t-12 -5.5h-136q-7 0 -12 5.5t-5 12zM459 -75q-5 5 -6 12t4 12l89 102q5 5 12 6t12 -4t5.5 -11.5t-3.5 -11.5l-90 -103q-5 -6 -12 -6.5t-11 4.5zM459 53
q4 5 11 4.5t12 -6.5l90 -102q5 -5 4.5 -12t-6.5 -12q-5 -5 -12 -4.5t-12 6.5l-89 103q-5 5 -5 12t7 11z" />
    <glyph glyph-name="icon-test10" unicode="&#xe612;" horiz-adv-x="1024" 
d="M783 171q91 24 153 80t82 131q11 52 -5 124q-20 81 -85.5 135.5t-150.5 62.5h-30q-39 70 -107.5 110.5t-148.5 40.5q-107 0 -189 -69t-99 -172q-86 -8 -144.5 -72t-58.5 -152q0 -91 65.5 -156t156.5 -65h546zM768 235h-550q-66 0 -112 46.5t-46 111.5t46 112.5t112 47.5
h4l34 -3l2 32q7 90 73 151t155 61q67 0 124 -37t85 -98l11 -21l24 2q12 2 38 2q66 -6 114.5 -47.5t64.5 -103.5q15 -43 2 -92q-13 -58 -56.5 -100.5t-113.5 -61.5zM392.5 -75q-6.5 0 -12 5.5t-5.5 11.5v137q0 6 5.5 11.5t12 5.5t12 -5.5t5.5 -11.5v-137q0 -6 -5.5 -11.5
t-12 -5.5zM307 11q0 6 5.5 11.5t11.5 5.5h137q6 0 11.5 -5.5t5.5 -12t-5.5 -11.5t-11.5 -5h-137q-7 0 -12 5t-5 12zM337 -53q-5 5 -6 11.5t4 11.5l90 103q5 5 11.5 5.5t11.5 -3.5q5 -5 6 -12t-4 -12l-89 -102q-5 -6 -12 -6.5t-12 4.5zM335 75q5 5 12 4.5t11 -6.5l90 -103
q5 -5 4.5 -12t-6.5 -11q-5 -5 -12 -4.5t-12 6.5l-89 102q-9 13 2 24zM625 -75q-6 0 -11.5 5.5t-5.5 11.5v137q0 6 5.5 11.5t11.5 5.5t11.5 -5.5t5.5 -11.5v-137q0 -6 -5.5 -11.5t-11.5 -5.5zM540 11q0 6 5 11.5t12 5.5h136q7 0 12 -5.5t5 -12t-5 -11.5t-12 -5h-136
q-8 0 -12.5 5t-4.5 12zM570 -53q-5 5 -6 11.5t3 11.5l90 103q5 5 12 5.5t12 -3.5q5 -5 5.5 -12t-3.5 -12l-90 -102q-5 -6 -12 -6.5t-11 4.5zM570 75q4 5 11 4.5t12 -6.5l90 -103q5 -5 4.5 -12t-6.5 -11q-5 -5 -12 -4.5t-12 6.5l-90 102q-5 5 -4.5 12t7.5 12z" />
    <glyph glyph-name="icon-test11" unicode="&#xe613;" horiz-adv-x="1027" 
d="M785 149l2 2q91 23 153.5 79.5t81.5 132.5q11 52 -4 123q-21 82 -86.5 136.5t-150.5 62.5q-4 0 -10.5 0.5t-11 0.5t-8.5 -1q-38 70 -107 110.5t-149 40.5q-107 0 -188.5 -69t-99.5 -172q-85 -8 -144 -72t-59 -152q-1 -91 63 -156.5t157 -65.5h544h17zM768 213h-544
q-65 0 -111.5 47t-46.5 111q0 66 46.5 113t111.5 47h4l34 -2l3 32q6 89 72 150t156 61q67 0 123.5 -36.5t85.5 -97.5l11 -21l23 2q13 2 38 2q66 -7 115 -48t65 -104q14 -43 2 -91q-13 -57 -58.5 -100.5t-114.5 -62.5zM371 -51q-9 -32 -36.5 -48t-55.5 -8q-27 10 -39.5 38.5
t-2.5 59.5q10 34 100 107q3 3 7 2t6 -6q12 -29 21 -75.5t0 -69.5zM787 -51q-9 -32 -36.5 -48t-55.5 -8q-27 10 -39.5 38.5t-2.5 59.5q10 34 100 107q3 3 7 2t6 -6q12 -29 21 -75.5t0 -69.5zM512 -105q-6 0 -11.5 5.5t-5.5 12.5v136q0 6 5.5 11.5t11.5 5.5t11.5 -5.5
t5.5 -11.5v-136q0 -7 -4.5 -12.5t-12.5 -5.5zM427 -19.5q0 6.5 5 12t12 5.5h136q7 0 12 -5.5t5 -12t-5 -11.5t-12 -5h-136q-7 0 -12 5t-5 11.5zM457 -83q-5 5 -6 11.5t3 11.5l90 103q5 5 11.5 5.5t11.5 -3.5q5 -5 6 -12t-3 -12l-90 -102q-3 -6 -10 -6.5t-13 4.5zM457 45
q4 5 11 4.5t12 -6.5l90 -103q5 -4 4.5 -11.5t-7.5 -11.5q-4 -5 -11 -4.5t-12 6.5l-90 102q-8 17 3 24z" />
    <glyph glyph-name="icon-test12" unicode="&#xe614;" horiz-adv-x="1024" 
d="M783 149q91 24 153 80t82 132q11 52 -5 123q-20 82 -85.5 136.5t-150.5 62.5h-30q-39 70 -107.5 110.5t-148.5 40.5q-107 0 -189 -69t-99 -172q-86 -8 -144.5 -72t-58.5 -152q0 -91 65.5 -156.5t156.5 -65.5h546zM768 213h-550q-66 0 -112 47t-46 111q0 66 46 113t112 47
h4l34 -2l2 32q7 89 73 150t155 61q67 0 124 -36.5t85 -97.5l11 -21l24 2q12 2 38 2q66 -7 114.5 -48t64.5 -104q15 -43 2 -91q-13 -58 -56.5 -101t-113.5 -62zM262.5 -107q-6.5 0 -12 5.5t-5.5 11.5v137q0 6 5.5 11.5t12 5.5t11.5 -5.5t5 -11.5v-137q0 -6 -5 -11.5
t-11.5 -5.5zM177 -21q0 6 5.5 11.5t11.5 5.5h137q6 0 11.5 -5.5t5.5 -12t-5.5 -11.5t-11.5 -5h-137q-8 0 -12.5 5t-4.5 12zM205 -85q-5 5 -6 11.5t4 11.5l89 103q5 5 12 5.5t12 -3.5q5 -5 5.5 -12t-3.5 -12l-90 -102q-3 -6 -10 -6.5t-13 4.5zM205 43q4 5 11.5 4.5t11.5 -6.5
l90 -103q5 -5 4.5 -12t-6.5 -11q-5 -5 -12 -4.5t-12 6.5l-89 102q-9 13 2 24zM499.5 -107q-6.5 0 -12 5.5t-5.5 11.5v137q0 6 5.5 11.5t12 5.5t11.5 -5.5t5 -11.5v-137q0 -6 -5 -11.5t-11.5 -5.5zM414 -21q0 6 5.5 11.5t11.5 5.5h136q7 0 12.5 -5.5t5.5 -12t-5.5 -11.5
t-12.5 -5h-136q-8 0 -12.5 5t-4.5 12zM444 -85q-5 5 -6 11.5t4 11.5l89 103q5 5 12 5.5t12 -3.5q5 -5 5.5 -12t-3.5 -12l-90 -102q-4 -6 -11.5 -6.5t-11.5 4.5zM442 43q4 5 11 4.5t12 -6.5l90 -103q5 -5 4.5 -12t-6.5 -11q-5 -5 -12 -4.5t-12 6.5l-90 102q-8 13 3 24z
M736 -107q-6 0 -11.5 5.5t-5.5 11.5v137q0 6 5.5 11.5t11.5 5.5t11.5 -5.5t5.5 -11.5v-137q0 -6 -5.5 -11.5t-11.5 -5.5zM651 -21q0 6 5 11.5t12 5.5h136q7 0 12 -5.5t5 -12t-5 -11.5t-12 -5h-136q-8 0 -12.5 5t-4.5 12zM681 -85q-5 5 -6 11.5t3 11.5l90 105q5 5 11.5 5.5
t11.5 -3.5q5 -5 6 -12t-3 -12l-90 -104q-5 -6 -12 -6.5t-11 4.5zM681 43q4 5 11 4.5t12 -6.5l90 -103q5 -5 4.5 -12t-7.5 -11q-4 -5 -11 -4.5t-12 6.5l-90 102q-5 5 -4.5 12t7.5 12z" />
    <glyph glyph-name="icon-test13" unicode="&#xe615;" horiz-adv-x="1024" 
d="M139 700zM75 699.5q0 -26.5 18.5 -45t45 -18.5t45.5 18.5t19 45t-19 45.5t-45.5 19t-45 -19t-18.5 -45.5zM523 700zM459 699.5q0 -26.5 18.5 -45t45 -18.5t45.5 18.5t19 45t-19 45.5t-45.5 19t-45 -19t-18.5 -45.5zM907 700zM843 699.5q0 -26.5 18.5 -45t45 -18.5
t45.5 18.5t19 45t-19 45.5t-45.5 19t-45 -19t-18.5 -45.5zM139 401zM75 401.5q0 -26.5 18.5 -45.5t45 -19t45.5 19t19 45.5t-19 45t-45.5 18.5t-45 -18.5t-18.5 -45zM523 401zM459 401.5q0 -26.5 18.5 -45.5t45 -19t45.5 19t19 45.5t-19 45t-45.5 18.5t-45 -18.5t-18.5 -45z
M907 401zM843 401.5q0 -26.5 18.5 -45.5t45 -19t45.5 19t19 45.5t-19 45t-45.5 18.5t-45 -18.5t-18.5 -45zM642 -43q-35 0 -75 11q-53 17 -142 77q-39 25 -56 35t-45 20.5t-51 8.5q-47 -5 -85 -37t-60 -74q-6 -11 -18.5 -15t-24.5 2q-11 7 -15 19t3 24q31 62 83.5 100
t112.5 45q26 3 51 -1.5t52.5 -18.5t43.5 -24t47 -31q75 -51 126 -68q27 -8 54.5 -8.5t68.5 10t99 41.5t132 83q11 8 24 5.5t21 -14.5q8 -11 5.5 -24t-14.5 -21q-207 -145 -337 -145z" />
    <glyph glyph-name="icon-test14" unicode="&#xe616;" horiz-adv-x="1024" 
d="M883 501h-576q-13 0 -22.5 10t-9.5 22.5t9.5 22t22.5 9.5h576q13 0 22.5 -9.5t9.5 -22.5q0 -14 -9.5 -23t-22.5 -9zM706 329h-454q-13 0 -22.5 9.5t-9.5 22t9.5 22.5t22.5 10h456q13 0 22.5 -10t9.5 -22q-1 -15 -10.5 -23.5t-23.5 -8.5zM629 156h-288q-12 0 -22 9.5
t-10 22.5t10 22.5t22 9.5h288q13 0 22.5 -9.5t9.5 -22.5q0 -14 -9 -23t-23 -9zM384 -17h-147q-13 0 -22.5 9.5t-9.5 22.5t9.5 22.5t22.5 9.5h147q13 0 22.5 -9.5t9.5 -22.5q0 -14 -9.5 -23t-22.5 -9zM497 672h-339q-13 0 -22.5 9.5t-9.5 22.5t9.5 22.5t22.5 9.5h339
q13 0 22.5 -9.5t9.5 -22.5t-9.5 -22.5t-22.5 -9.5z" />
    <glyph glyph-name="icon-test15" unicode="&#xe617;" horiz-adv-x="1024" 
d="M783 149q91 24 153 80t82 132q11 52 -5 123q-20 82 -85.5 136.5t-150.5 62.5h-30q-39 70 -107.5 110.5t-148.5 40.5q-107 0 -189 -69t-99 -172q-86 -8 -144.5 -72t-58.5 -152q0 -91 65.5 -156.5t156.5 -65.5h546zM768 213h-550q-66 0 -112 47t-46 111q0 66 46 113t112 47
h4l34 -2l2 32q7 89 73 150t155 61q67 0 124 -36.5t85 -97.5l11 -21l24 2q12 2 38 2q66 -7 114.5 -48t64.5 -104q15 -43 2 -91q-13 -58 -56.5 -101t-113.5 -62zM183.5 -107q-6.5 0 -12 5.5t-5.5 11.5v137q0 6 5.5 11.5t12 5.5t12 -5.5t5.5 -11.5v-137q0 -6 -5.5 -11.5
t-12 -5.5zM98 -21q0 6 5.5 11.5t11.5 5.5h137q6 0 11.5 -5.5t5.5 -12t-5.5 -11.5t-11.5 -5h-137q-7 0 -12 5t-5 12zM128 -85q-5 5 -6 11.5t4 11.5l89 103q5 5 12 5.5t12 -3.5q5 -5 6 -12t-4 -12l-90 -102q-4 -6 -11 -6.5t-12 4.5zM126 43q5 5 12 4.5t11 -6.5l90 -103
q5 -5 4.5 -12t-6.5 -11q-5 -5 -12 -4.5t-12 6.5l-89 102q-9 13 2 24zM499.5 -107q-6.5 0 -12 5.5t-5.5 11.5v137q0 6 5.5 11.5t12 5.5t11.5 -5.5t5 -11.5v-137q0 -6 -5 -11.5t-11.5 -5.5zM414 -21q0 6 5.5 11.5t11.5 5.5h136q7 0 12.5 -5.5t5.5 -12t-5.5 -11.5t-12.5 -5
h-136q-8 0 -12.5 5t-4.5 12zM444 -85q-5 5 -6 11.5t4 11.5l89 103q5 5 12 5.5t12 -3.5q5 -5 5.5 -12t-3.5 -12l-90 -102q-4 -6 -11.5 -6.5t-11.5 4.5zM442 43q4 5 11 4.5t12 -6.5l90 -103q5 -5 4.5 -12t-6.5 -11q-5 -5 -12 -4.5t-12 6.5l-90 102q-8 13 3 24zM326.5 4
q-6.5 0 -6.5 7v53q0 6 6.5 6t6.5 -6v-53q0 -7 -6.5 -7zM292 38q0 7 7 7h53q6 0 6 -6.5t-6 -6.5h-53q-3 -1 -5 1t-2 5zM303 13q-4 4 0 8l34 41q4 4 8.5 0t0.5 -9l-35 -40q0 -4 -8 0zM303 62q4 4 8 0l35 -41q1 -1 1 -4t-1 -4q-5 -4 -9 0l-34 40q-4 5 0 9zM810.5 -107
q-6.5 0 -11.5 5.5t-5 11.5v137q0 6 5 11.5t11.5 5.5t12 -5.5t5.5 -11.5v-137q0 -6 -5.5 -11.5t-12 -5.5zM725 -21.5q0 6.5 5.5 12t11.5 5.5h137q6 0 11.5 -5.5t5.5 -12t-5.5 -11.5t-11.5 -5h-137q-6 0 -11.5 5t-5.5 11.5zM755 -85q-5 5 -6 11.5t4 11.5l90 103q5 5 11.5 5.5
t11.5 -3.5q5 -5 6 -12t-4 -12l-89 -102q-5 -6 -12 -6.5t-12 4.5zM755 43q5 5 12 4.5t12 -6.5l89 -103q5 -5 4.5 -12t-6.5 -11q-5 -5 -12 -4.5t-11 6.5l-90 102q-5 5 -4.5 12t6.5 12zM657 -102q-6 0 -6 6v53q0 7 6 7t6 -7v-53q0 -6 -6 -6zM623 -68q0 6 6 6h54q6 0 6 -6.5
t-6 -6.5h-54q-6 -3 -6 7zM634 -94q-2 2 -2 4.5t2 4.5l34 40q4 4 8.5 0t-0.5 -8l-34 -41q0 -4 -8 0zM633.5 -45q4.5 4 8.5 0l34 -40q5 -5 0.5 -9t-8.5 0l-34 41q-5 4 -0.5 8z" />
    <glyph glyph-name="icon-test16" unicode="&#xe618;" horiz-adv-x="1024" 
d="M715 501h-576q-14 0 -23 9t-9 23q0 13 9.5 22.5t22.5 9.5h576q12 0 22 -9.5t10 -22.5q0 -14 -9.5 -23t-22.5 -9zM900 501h-59q-13 0 -22.5 10t-9.5 22.5t9.5 22t22.5 9.5h59q13 0 22.5 -9.5t9.5 -22.5q0 -14 -9.5 -23t-22.5 -9zM595 329h-456q-14 0 -23 8.5t-9 23.5
q0 12 9.5 22t22.5 10h456q13 0 22.5 -10t9.5 -22q0 -15 -9.5 -23.5t-22.5 -8.5zM427 156h-288q-13 0 -22.5 9.5t-9.5 22.5t9.5 22.5t22.5 9.5h288q12 0 22 -9.5t10 -22.5q0 -14 -9.5 -23t-22.5 -9zM902 156h-352q-12 0 -22 9.5t-10 22.5t10 22.5t22 9.5h352q13 0 22.5 -9.5
t9.5 -22.5q0 -14 -9 -23t-23 -9zM902 329h-179q-13 0 -22.5 9.5t-9.5 22t9.5 22.5t22.5 10h179q13 0 22.5 -10t9.5 -22.5t-9.5 -22t-22.5 -9.5zM902 -15h-499q-13 0 -22.5 9.5t-9.5 22.5t9.5 22.5t22.5 9.5h499q13 0 22.5 -9.5t9.5 -22.5q0 -14 -9 -23t-23 -9zM286 -17h-147
q-13 0 -22.5 9.5t-9.5 22.5t9.5 22.5t22.5 9.5h147q13 0 22.5 -9.5t9.5 -22.5q0 -14 -9.5 -23t-22.5 -9zM491 672h-352q-13 0 -22.5 9.5t-9.5 22.5t9.5 22.5t22.5 9.5h352q12 0 22 -9.5t10 -22.5t-10 -22.5t-22 -9.5zM902 672h-296q-13 0 -22.5 9.5t-9.5 22.5t9.5 22.5
t22.5 9.5h296q13 0 22.5 -9.5t9.5 -22.5t-9.5 -22.5t-22.5 -9.5z" />
    <glyph glyph-name="icon-test17" unicode="&#xe619;" horiz-adv-x="1024" 
d="M203 683zM139 682.5q0 -26.5 18.5 -45t45 -18.5t45.5 18.5t19 45t-19 45.5t-45.5 19t-45 -19t-18.5 -45.5zM523 683zM459 682.5q0 -26.5 18.5 -45t45 -18.5t45.5 18.5t19 45t-19 45.5t-45.5 19t-45 -19t-18.5 -45.5zM843 683zM779 682.5q0 -26.5 18.5 -45t45 -18.5
t45.5 18.5t19 45t-19 45.5t-45.5 19t-45 -19t-18.5 -45.5zM203 43zM139 42.5q0 -26.5 18.5 -45t45 -18.5t45.5 18.5t19 45t-19 45.5t-45.5 19t-45 -19t-18.5 -45.5zM523 43zM459 42.5q0 -26.5 18.5 -45t45 -18.5t45.5 18.5t19 45t-19 45.5t-45.5 19t-45 -19t-18.5 -45.5z
M843 43zM779 42.5q0 -26.5 18.5 -45t45 -18.5t45.5 18.5t19 45t-19 45.5t-45.5 19t-45 -19t-18.5 -45.5zM96 363zM32 362.5q0 -26.5 19 -45t45 -18.5t45 18.5t19 45t-19 45.5t-45 19t-45 -19t-19 -45.5zM949 363zM885 362.5q0 -26.5 19 -45t45.5 -18.5t45 18.5t18.5 45
t-18.5 45.5t-45 19t-45.5 -19t-19 -45.5zM657 531q-82 0 -132 -68q-23 31 -58 49.5t-74 18.5q-69 0 -117 -48t-48 -116q0 -67 48.5 -115.5t116.5 -48.5q81 0 132 68q23 -31 58 -49.5t74 -18.5q69 0 116.5 48t47.5 116q0 67 -48.5 115.5t-115.5 48.5zM390.5 267
q-41.5 0 -71 29t-29.5 71t29.5 71t71 29t71 -29t29.5 -71t-29.5 -71t-71 -29zM657 267q-42 0 -71 29t-29 71t29 71t71 29t71 -29t29 -71t-29 -71t-71 -29z" />
    <glyph glyph-name="icon-test18" unicode="&#xe61a;" horiz-adv-x="1024" 
d="M777 433h-643q-12 0 -22 9.5t-10 22.5t10 22.5t22 9.5h643q38 0 65.5 28t27.5 66t-27.5 66t-65.5 28h-86q-13 0 -22.5 9.5t-9.5 22.5t9.5 22.5t22.5 9.5h86q65 0 111 -46t46 -112q0 -64 -46 -111t-111 -47zM802 -11h-77q-12 0 -22 10t-10 22.5t10 22t22 9.5h77
q34 0 57.5 24t23.5 57.5t-23.5 57t-57.5 23.5h-354q-13 0 -22.5 10t-9.5 22.5t9.5 22t22.5 9.5h354q61 0 103 -42.5t42 -102t-42 -102.5t-103 -43zM410 53h-250q-13 0 -22.5 10t-9.5 22.5t9.5 22t22.5 9.5h250q12 0 22 -9.5t10 -22t-10 -22.5t-22 -10zM580 587h-249
q-13 0 -22.5 9.5t-9.5 22t9.5 22.5t22.5 10h249q13 0 22.5 -10t9.5 -22.5t-9.5 -22t-22.5 -9.5z" />
    <glyph glyph-name="icon-test19" unicode="&#xe61b;" horiz-adv-x="1024" 
d="M777 433h-643q-12 0 -22 9.5t-10 22.5t10 22.5t22 9.5h643q38 0 65.5 28t27.5 66t-27.5 66t-65.5 28h-86q-13 0 -22.5 9.5t-9.5 22.5t9.5 22.5t22.5 9.5h86q65 0 111 -46t46 -112q0 -64 -46 -111t-111 -47zM802 -11h-77q-12 0 -22 10t-10 22.5t10 22t22 9.5h77
q34 0 57.5 24t23.5 57.5t-23.5 57t-57.5 23.5h-354q-13 0 -22.5 10t-9.5 22.5t9.5 22t22.5 9.5h354q61 0 103 -42.5t42 -102t-42 -102.5t-103 -43zM474 53h-250q-13 0 -22.5 10t-9.5 22.5t9.5 22t22.5 9.5h250q12 0 22 -9.5t10 -22t-10 -22.5t-22 -10z" />
    <glyph glyph-name="icon-test20" unicode="&#xe61c;" horiz-adv-x="1024" 
d="M512 501q-89 0 -172.5 9.5t-153.5 27.5t-112 48.5t-42 68.5t42 68t112 48t153.5 28t172.5 10t172.5 -9.5t153.5 -27.5t112 -48.5t42 -68.5t-42 -68.5t-111.5 -48.5t-153 -27.5t-173.5 -9.5zM512 742q-77 0 -146.5 -6.5t-117.5 -17t-83.5 -23t-52 -23.5t-16.5 -19
t16.5 -19t52 -23.5t83.5 -23t117.5 -17.5t146.5 -7t146.5 7t117.5 17.5t83.5 23t52 23.5t16.5 19t-16.5 19.5t-52 24t-83.5 22.5t-117.5 16.5t-146.5 6.5zM521 -73q-49 0 -91.5 20t-68.5 47q-10 9 -10 22t9.5 22.5t22.5 9.5t22 -10q7 -6 17 -14t34.5 -19t50.5 -14t62 8.5
t71 41.5q9 8 23 7t22 -12t7 -24t-11 -21q-73 -64 -160 -64zM510 85q-56 0 -106 11t-81 26t-55.5 32t-34.5 27t-11 13q-9 9 -8 24t12 23q10 8 23.5 6t21.5 -12q85 -86 239 -86h2q49 0 92 9t69 19.5t48 25t28.5 21t11.5 12.5l1 1q8 10 21.5 12t22.5 -6q10 -8 12.5 -22.5
t-5.5 -24.5l-1 -1l-16.5 -16.5t-35.5 -27t-58 -31.5t-82 -24t-108 -11h-2zM512 286q-87 0 -160.5 15t-115.5 34t-75.5 44t-42 35.5t-13.5 18.5q-7 11 -4 24t14 21q12 6 24.5 3.5t20.5 -12.5h1q6 -8 14.5 -17t38 -28.5t65.5 -34t99 -26t136 -11.5q48 0 91.5 4t76.5 11
t61.5 16.5t49.5 19.5t37.5 20t27.5 19t18 16t10 11.5t4 4.5q6 11 18.5 15t23.5 -3q12 -6 15.5 -18.5t-2.5 -23.5q0 -1 -1 -2q-8 -12 -18.5 -24t-45.5 -38.5t-78.5 -45t-120.5 -33.5t-169 -15z" />
    <glyph glyph-name="icon-test21" unicode="&#xe61d;" horiz-adv-x="1024" 
d="M777 433h-643q-12 0 -22 9.5t-10 22.5t10 22.5t22 9.5h643q38 0 65.5 28t27.5 66t-27.5 66t-65.5 28h-86q-13 0 -22.5 9.5t-9.5 22.5t9.5 22.5t22.5 9.5h86q65 0 111 -46t46 -112q0 -64 -46 -111t-111 -47zM802 -11h-77q-12 0 -22 10t-10 22.5t10 22t22 9.5h77
q34 0 57.5 24t23.5 57.5t-23.5 57t-57.5 23.5h-354q-13 0 -22.5 10t-9.5 22.5t9.5 22t22.5 9.5h354q61 0 103 -42.5t42 -102t-42 -102.5t-103 -43z" />
    <glyph glyph-name="icon-test22" unicode="&#xe61e;" horiz-adv-x="1027" 
d="M777 26l8 4q91 22 155 79t82 132q13 57 -2 124q-21 81 -86 135.5t-151 62.5q-4 0 -10.5 0.5t-11 0.5t-8.5 -1q-38 71 -107 112.5t-149 41.5q-107 0 -188.5 -69t-99.5 -172q-85 -8 -144 -74.5t-59 -154.5q0 -92 65 -159t157 -67h519zM747 85h-519q-65 0 -111.5 49
t-46.5 113q0 66 46.5 114.5t111.5 48.5q1 0 2 1t3 1l34 -2l2 32q6 89 72 150t156 61q67 0 123.5 -36.5t85.5 -98.5l11 -21l23 2q13 2 39 2q65 -6 114 -47.5t65 -103.5q14 -43 2 -92q-13 -56 -64 -101.5t-122 -64.5zM544 239h-55q0 33 6 49q11 21 36 38q26 20 26 43
q0 21 -13 34q-9 9 -28 9q-18 0 -32 -11q-11 -9 -15 -38h-59q0 52 34 76q27 22 68 22q52 0 81 -26q28 -21 28 -66q0 -27 -13 -43q-9 -14 -38 -34q-16 -9 -20 -19q-6 -13 -6 -34zM548 211v-60h-62v60h62z" />
    <glyph glyph-name="reindeer__easyiconnet" unicode="&#xe61f;" horiz-adv-x="1024" 
d="M512 896q139 0 257 -68.5t186.5 -186.5t68.5 -257t-68.5 -257t-186.5 -186.5t-257 -68.5t-257 68.5t-186.5 186.5t-68.5 257t68.5 257t186.5 186.5t257 68.5zM110 372v-10q0 -23 6 -46v0q23 -133 123 -226t235 -106h2h7l3 -1h7h1.5h2.5h2.5h2.5h6h4v0h9h2h8h2q4 0 8 1h3
h5q135 13 234.5 104.5t123.5 223.5q3 13 5 44v0h1v4v2v0v1q5 56 -12 117v2q-33 132 -141.5 217.5t-247.5 85.5q-143 0 -253 -89.5t-140 -226.5v0q-7 -26 -9 -73v-12v-1v-11zM213 375v-8q0 -16 4 -34v0q17 -99 91.5 -168t175.5 -79h1h6h2h5l1 -0.5t1.5 -0.5h2h2.5h4h3v0h7h1
q3 0 6 1h2h6h2q2 0 4 1q100 9 174 77t92 167q2 9 4 32v0v0q0 1 1 3v2v0v0q3 42 -9 87v2q-25 98 -105.5 162t-184.5 64q-107 0 -188.5 -67t-103.5 -169v0q-6 -19 -7 -54v-9v-1v-8zM325 378v-4q0 -11 3 -22v0q10 -62 56.5 -105t110.5 -49v0h4h1h3h1h1l1 -0.5l1 -0.5h3h2v0h4h1
q2 1 4 1h1h3h2q10 1 19 2q51 5 95 47.5t54 103.5q2 6 3 20v0v0v2v1v0v0q3 26 -5 55v1q-16 61 -66 101t-115 40q-67 0 -118 -42t-65 -105q-3 -13 -4 -34v-6v0v-6zM540.5 807q108.5 0 185.5 -77t77 -185.5t-77 -185t-185.5 -76.5t-185 76.5t-76.5 185t76.5 185.5t185 77z
M373 606q30 0 51.5 -21.5t21.5 -51t-21.5 -51t-51.5 -21.5t-51 21.5t-21 51t21 51t51 21.5zM980 176q-21 4 -78 18.5t-97 20.5t-79 3q-32 -3 -93.5 -18t-91.5 -18q-43 -4 -98.5 3.5t-99 18.5t-98.5 16.5t-98 -2.5q-16 -3 -33.5 -8t-40.5 -12.5t-34 -10.5q59 -141 187 -228
t286 -87q154 0 280.5 84t187.5 220zM570 600q30 0 51.5 -21t21.5 -51t-21.5 -51t-51.5 -21t-51 21t-21 51t21 51t51 21zM196 21q16 -1 46 0.5t121 17.5t181 44q88 28 153.5 42t131.5 11q56 -3 122 -16q-69 -114 -185.5 -181t-253.5 -67q-177 0 -316 109v40zM867 15
q-215 12 -391 68q-87 28 -153 42t-131 11q-55 -3 -119 -16q68 -113 185 -180.5t254 -67.5q102 0 193.5 37.5t161.5 105.5zM835 -13q-50 7 -152 21.5t-151 20.5q-135 17 -217 5q-57 -9 -137 -38q69 -59 154.5 -91.5t179.5 -32.5q182 0 323 115zM653 172q-23 28 -16 73
q2 6 3 15v0v0q7 29 10 42q4 11 -5 37q-2 6 -5 9.5t-9.5 8.5t-7.5 6q-17 15 -43 14q-11 0 -44 2q-2 0 -5 4q-1 3 -2 7q0 7 1 8q9 8 14 9q13 3 17 9q5 6 4.5 11.5t-7.5 7.5q-5 1 -10.5 7.5t-7.5 7.5q-1 0 -1 1.5t1 2.5q3 6 -4 10q5 1 6 1q12 6 13 7q10 9 17 19q8 12 15 13
q3 1 6 5q11 14 26 34q2 2 3 5q5 13 -3 28q-1 -2 -1 -6v-11q-7 -28 -42 -35q-5 -1 -3 5l10 29q6 14 11 20q19 21 6 52l-1 4q-3 -3 -2 -9l1 -20q-1 -11 -8 -16q-5 -3 -7 3q-3 8 -11 30l-3 5q-2 -3 -2 -5q0 -4 0.5 -11.5t0.5 -11.5q0 -8 -5 -10q-1 -1 -1 -4q1 -5 -2 -7.5
t-8 -0.5q-6 2 -7 3q-9 4 -22.5 17t-17.5 16q0 -3 2 -5q23 -29 38 -39q9 -6 15 -6q5 1 6 -0.5t1 -5.5q-3 -33 -29 -44q-6 -3 -19 -14q-9 -6 -25 -8q-4 0 -6 3q-2 2 2 6q9 8 13 25q2 9 -4 17q-1 -1 0 -2q2 -10 -4 -20.5t-16 -14.5q-7 -3 -14 0q-6 3 -13 3q-2 1 -3 4
q-5 15 -6 17q-3 -1 -2 -4q3 -10 3 -11q3 -6 -4 -6q-32 4 -50 17q-3 2 -3 3q-9 20 -8 28v7q-1 2 -3 2q0 -3 -1 -11.5t-1 -12.5h-2q-21 22 -19 44q0 4 5 36q0 1 2 11q0 1 -1 1h-1q-6 -14 -7 -15l-6 -16q-2 -4 -5 -3q-16 6 -17 19v8v8q0 3 -3 4q-2 -8 -2 -11q0 -12 2 -25
q0 -1 0.5 -9t1.5 -11q-9 4 -14.5 18t-7.5 16q-1 -13 1 -19q6 -18 22 -29q2 -1 5 -4q0 -1 2.5 -4t3.5 -5q4 -3 11.5 -9.5t11.5 -10.5q35 -34 82 -39q6 -1 7.5 -3t0.5 -9q-4 -17 2 -27q1 -1 1 -4q-1 -3 -2.5 -7t-2.5 -9t-2 -8q-5 -18 -6 -21q-4 -15 -9 -41q-1 -3 0 -7
q0 -3 1 -13.5t1 -16.5t0.5 -20t0.5 -21q1 -16 4 -31q1 -9 10 -19q12 -11 11 -27q0 -4 3 -17q0 -2 3.5 -12.5t4.5 -16.5t1 -12.5v-15t1 -13.5q0 -1 1 -13l0.5 -3t0.5 -4v-9q-1 -28 -2 -33q-7 -7 -7 -13h14q0 6 4 12q1 28 4 43v0q1 1 1 3q0 3 2 10.5t2 11.5v26.5v26.5
q0 3 0.5 7t0.5 5q0 3 1.5 6.5t6.5 7.5t13 4q6 2 10.5 -1.5t5.5 -8.5q2 -16 3 -35q0 -5 -2 -17q-3 -17 0 -21q2 -5 2.5 -11.5t0.5 -11.5v-11q-1 -28 -2 -33q-6 -7 -6 -13h12q1 6 4 12q1 19 2 34h1h-1q1 5 2 9h-1q3 13 3 28q0 18 8 49q0 1 2 4l3 -3q1 -1 5 -7t7 -9
q1 -1 6 -6.5t8 -8.5t6.5 -8t6 -9.5t2.5 -8.5q1 -2 1.5 -4.5t0.5 -3.5q0 -12 -1.5 -25.5t-2.5 -21.5l-1 -8l-14 -13h19q1 4 2 6.5t2 2.5v0q4 12 7 29v-1q1 2 1 3q13 61 8 78v1.5v0.5q6 -13 16 -21q3 -10 1.5 -29t-5.5 -38l-3 -19l-13 -13h18q1 4 2 6.5t2 2.5h1q1 4 2.5 10.5
t5.5 25.5t5.5 31.5t3 28.5t-3.5 17zM593 519q-2 -7 -11 -9.5t-16 0.5q10 3 27 9zM558 497l-29 -9q2 6 12.5 9.5t16.5 -0.5zM776 660q-18 -10 -38 -10h-1q-32 0 -54.5 22.5t-22.5 54.5v0q0 24 13 44q68 -41 103 -111zM188 695v0q8 0 8 -8.5t-8 -8.5v0q-9 1 -9 9t9 8v0z
M941.5 490q8.5 0 8.5 -8.5t-8.5 -8.5t-8.5 8.5t8.5 8.5zM124 538v0q8 0 8 -8.5t-8 -8.5v0q-9 0 -9 8.5t9 8.5v0zM864 705v0q8 0 8 -8.5t-8 -8.5v0q-9 0 -9 8.5t9 8.5zM847 550v0q8 0 8 -8.5t-8 -8.5v0q-9 0 -9 8.5t9 8.5zM677 831v0q9 0 9 -8.5t-9 -8.5v0q-8 0 -8 8.5t8 8.5
zM398 834v0q9 0 9 -8.5t-9 -8.5v0q-8 1 -8 9t8 8v0zM226 550v0q9 0 9 -8.5t-9 -8.5v0q-8 0 -8 8.5t8 8.5v0z" />
    <glyph glyph-name="haunted_house__easyiconnet" unicode="&#xe627;" horiz-adv-x="1024" 
d="M512 896q104 0 199 -40.5t163.5 -109t109 -163.5t40.5 -199t-40.5 -199t-109 -163.5t-163.5 -109t-199 -40.5t-199 40.5t-163.5 109t-109 163.5t-40.5 199t40.5 199t109 163.5t163.5 109t199 40.5zM515.5 761q116.5 0 215.5 -57t156.5 -156t57.5 -215.5t-57.5 -215.5
t-156.5 -156.5t-215.5 -57.5t-215.5 57.5t-156.5 156.5t-57.5 215.5t57.5 215.5t156.5 156t215.5 57zM142 121q-41 72 -52 155q30 -11 49 -38t19 -60q0 -31 -16 -57zM421 611q-21 0 -36 14.5t-15 35.5t15 36t36 15t35.5 -15t14.5 -36t-14.5 -35.5t-35.5 -14.5zM212.5 517
q23.5 0 40 -16.5t16.5 -40t-16.5 -40t-40 -16.5t-40 16.5t-16.5 40t16.5 40t40 16.5zM402.5 382q-23.5 0 -40 16.5t-16.5 40t16.5 40t40 16.5t40.5 -16.5t17 -40t-17 -40t-40.5 -16.5zM660.5 568q-20.5 0 -35.5 15t-15 35.5t15 35.5t35.5 15t35.5 -15t15 -35.5t-15 -35.5
t-35.5 -15zM580 354q-21 0 -35.5 15t-14.5 36t14.5 35.5t35.5 14.5t36 -14.5t15 -35.5t-15 -36t-36 -15zM830 624q66 -71 95 -162q-17 -8 -37 -8v0q-39 0 -67 28t-28 67q0 46 37 75zM776 273q-21 0 -36 15t-15 36t15 35.5t36 14.5t35.5 -14.5t14.5 -35.5t-14.5 -36
t-35.5 -15zM792 75q-21 0 -36 15t-15 35.5t15 35.5t36 15t36 -15t15 -35.5t-15 -35.5t-36 -15zM597 -2q-21 0 -35.5 15t-14.5 35.5t14.5 35.5t35.5 15t36 -15t15 -35.5t-15 -35.5t-36 -15zM547 196q-10 0 -17 7t-7 17t7 17t17 7t17 -7t7 -17t-7 -17t-17 -7zM388 50
q-21 0 -36 15t-15 35.5t15 35.5t36 15t35.5 -15t14.5 -35.5t-14.5 -35.5t-35.5 -15zM283 273q12 0 21 -8.5t9 -20.5t-9 -21t-21 -9t-21 9t-9 21t9 20.5t21 8.5zM510 200q253 0 449 -66q-67 -120 -186 -191t-261 -71t-261 71.5t-186 191.5q195 65 445 65zM511 817h9v-18h24
v-9h-24v-92h-9v92h-24v9h24v18zM447 432h137v161h33l-101 130l-101 -130h32v-161zM476 571h79v-83h-79v83zM490 571h3v-16h13v16h3v-16h14v16h2v-16h14v16h2v-16h14v-3h-14v-13h14v-3h-14v-14h14v-2h-14v-14h14v-3h-14v-11h-2v11h-14v-11h-2v11h-14v-11h-3v11h-13v-11h-3v11
h-14v3h14v14h-14v2h14v14h-14v3h14v13h-14v3h14v16zM523 552h-14v-13h14v13zM509 536v-14h14v14h-14zM523 520h-14v-14h14v14zM539 552v-13h-14v13h14zM539 536v-14h-14v14h14zM539 520v-14h-14v14h14zM493 552v-13h13v13h-13zM493 536v-14h13v14h-13zM493 520v-14h13v14
h-13zM664 552h9v-18h24v-10h-24v-91h-9v91h-24v10h24v18zM357 552h10v-18h23v-10h-23v-91h-10v91h-24v10h24v18zM778 26q-3 20 -18 58.5t-21 71.5l-15 71q2 1 3.5 3t3 10.5t-6.5 21.5q-6 12 -38 28t-61 25l-29 10v1l-51 2l-51 -1q-7 0 -9 2l-15 29q-7 14 -11 18
q-2 3 -18.5 7.5t-19.5 4.5h-7l-28 -20l-3 2l29 28l23 -10l30 -9l23 -46l19 2l63 3h19q-24 42 -27 54q-5 20 5 43q1 1 -2 5t-7 8.5t-8.5 8.5t-8.5 7l-3 3q-42 33 -53 37q-7 2 -18 1t-22 -3l-10 -3l-40 31l41 -26q38 6 46 6q6 0 12 -4l4 -2t10 -5.5t13 -7.5t14.5 -10t14.5 -12
q4 -4 10.5 -9.5t8.5 -7.5t4.5 -5t3.5 -5.5t3 -6.5q1 -5 0.5 -8t-1 -4t-2 -2t-2.5 -2q-2 -2 -3 -11.5t3 -20.5q3 -6 12.5 -18t17.5 -21t8 -10q1 -3 43 -16q61 -18 74 -35q1 4 3.5 10t3.5 9q1 6 -10 28l-15 10l-18 6l-58 29q-8 8 -10 15l-12 42v0l-5 3q-13 11 -14 15l-6 35
l-5 18q-7 2 -9 4q-5 6 -10 7q-46 16 -50 22l-4.5 9l-4 8t-2.5 4l-30 34q-1 4 -5 22q-3 16 -16 70l-9 4l-7 5l-9 12q-9 5 -10 5q-63 7 -120 21l89 -26l-3 2l19 6l11 2l15 -6q11 -13 11.5 -13.5t10.5 -5.5l-1 4l-9 41q2 1 3 -2q2 -3 4 -14l28 -98q3 -18 5 -22t15 -20
q2 -3 10 -11t12 -13l10 -15q2 -3 33.5 -16t32.5 -15q4 -3 7 -12q1 -4 1 -13q-2 -17 6 -31q2 -4 8.5 -11.5t8.5 -10.5t4 -14q3 -19 12 -28q6 -5 23.5 -14t19.5 -10q3 -3 10 -5t12 -2l5 -1l-13 49q-8 5 -11 8l-24 15q-29 22 -29 24l-11 29l-11 42l-6 25l-9 9q-27 20 -30 23
q-8 8 -14 6q-15 -5 -21 0l-15 13q-2 18 -4 21q-1 2 -11 8.5t-11 7.5l-7 15l4 2l5 -9q22 -17 24.5 -20.5t5.5 -13.5t8 -14q6 -5 26 -4q11 1 14 -2q1 0 9 -10t11 -12l18 -10l7 -10q1 9 2 15q0 3 1.5 6l3 6l1.5 3l2 9l-4 35q0 6 -10 21l-6 15l-5 22l-20 32l-1 13l-1 17l-13 10
q-4 1 -12 0q-4 -1 -6.5 0.5t-2.5 3.5l-1 1q8 1 13 1q4 0 14.5 -4t12.5 -7q4 -8 6 -15q1 -1 0.5 -6.5t-1.5 -8.5q-1 -5 3 -11l16 -26q4 -10 4 -16q0 -4 5 -13.5t6.5 -11.5t5.5 -10t4 -14l1 -36q-1 -2 -2.5 -6t-4 -12.5t-2.5 -11.5q1 -2 1.5 -9t1.5 -13q0 -3 0.5 -9.5
t1.5 -14.5q6 -36 11 -42q3 -3 7 -6t8 -5l3 -1q28 -24 31 -25q3 1 4 5q-7 22 -7 26l2 18l-9 23q-13 23 -14 26q-13 46 -13 51q0 3 -1 7t-1 6.5v5t1.5 3.5t4.5 2q4 1 13.5 12t17.5 22l8 11q11 46 12 57l-5 37q-10 21 -13 34q-2 6 -2 11t1 9l1 3h3q-1 -18 1 -23q1 -3 8 -19
t8 -18q0 -2 0.5 -7.5l0.5 -5.5q2 -7 3 -27q0 -2 -2 -16l-5 -19t-5 -20l-9 -17l-28 -35q0 -5 -1 -7l-3 -4l4 -20q11 21 14 23q5 2 17 15l36 47q0 1 -0.5 4t-1.5 10t-1.5 12.5t-0.5 11t1 6.5q13 23 10 33q-1 4 3 11t9 12l4 5l13 1l-1 -4l-9 -4q-11 -22 -12 -23l2 -20
q-1 0 -1.5 -1.5t-2.5 -4.5t-3.5 -5.5l-3 -5t-1.5 -3.5q1 -1 2 -9t1.5 -15.5t1.5 -8.5q1 -5 -5 -14l-9 -15q-38 -42 -39 -45q0 -1 -3.5 -7t-5.5 -9l-2 -9l4 -20l7 -8q17 10 22 11q3 1 14 -1q2 0 6.5 2.5t5.5 4.5l16 18v1.5t-1 4t-1.5 6t-1 6t-1 6l-1 5t0.5 2.5q1 1 1 3
q1 3 3 3q11 0 11 4l7 42v12h5v-27l-5 -37l-5 -1l-7 -1l-4 -2q9 -27 9 -29l-2 -2.5t-2 -4.5q0 -1 -1 -3t-2.5 -4t-2.5 -4t-5 -5.5t-8 -6t-4 -3t-3 -0.5h-5l-3 -1q-18 -1 -18 -3l-10 -10q8 -20 8 -23v-6.5t1 -10.5l2 -12q25 -2 29 -3l12 1q7 16 9 18l15 11l5 24l-2 13l31 8
l-3 -6l-23 -6l4 -13q-4 -20 -5 -24q0 -1 -2.5 -3.5t-4.5 -4l-2 -1.5q-14 -22 -14 -23l-8 -5l-14 2l-27 1q6 -18 6 -25q0 -4 4 -20q0 -1 1 -10t3 -13l13 -21q12 -14 16 -20q1 -2 2 -7l3 3q40 42 43 49q1 3 10 13t11 18q2 6 7 9l-4 42q0 7 -1 13q-1 4 2 14l1 23q-4 5 -5 10
q0 2 -1.5 11t-2.5 17l-2 8q2 4 5 8q2 1 3.5 2l3 2t1.5 2l6 40q2 44 -3 53q-3 4 -7 9t-6.5 8t-3.5 4l-3 11l6 29q1 12 -4 16l-9 14l3 -2q10 -10 13 -16q4 -10 1 -20l-3 -7l1 -18l5 -13q9 -5 13 -17l4 -33l-2 -38l-4 -26q-11 -7 -12 -10q0 -2 1 -8t1 -7l8 -26q9 29 10 39
q0 18 4 20q3 2 8.5 3.5t10.5 3.5l10 11q-1 2 -1.5 4t-1 6.5t0.5 4.5q1 1 14.5 3.5t13.5 5.5q2 14 6 17l33 6v-5l-29 -4q-3 -15 -7 -18q-1 -2 -4 -3t-5 -3q-2 -1 -5 -1.5t-5.5 -1t-2.5 -2.5t-0.5 -6t-0.5 -7q-1 -5 -5 -10q-1 -1 -7 -2t-8 -4q-2 -2 -5 -3.5t-4.5 -3t-1.5 -2.5
l3 -8h23l21 -1l19 3q3 -1 5.5 -2.5t3.5 -2.5l1 -1l25 -7l7 7l3 -2l-8 -10q-16 3 -20 3q-1 1 -7.5 5t-10.5 4t-16.5 -2t-13.5 -2l-10.5 1t-12.5 1l-13 -6q-3 -11 -5 -16q0 -3 -4 -10.5t-4 -8.5q0 -8 -2 -13l-2 -9l26 14l9 -1q0 2 0.5 8t0.5 7q1 3 9 3q1 0 7.5 5t12.5 10l6 5
q9 1 10 -2q1 -2 2 -7.5t2 -6.5q10 -17 14 -17l8.5 0.5t8.5 -0.5q2 -1 7 -7t6 -8l-3 -1h-2v0l-8 11q-1 -1 -3 -1.5t-7.5 -1.5t-6.5 2l-7.5 5t-5.5 6q-1 2 -3.5 5t-4 5l-1.5 2l-2 8l-9 -6q-17 -15 -18 -15q-5 -1 -5 -3l-1 -10l-4 -4q-8 -2 -10 -2l-23 -13q3 -34 5 -53h2l46 3
l34 20q12 4 20 -2q10 -8 11 -13q1 -2 14.5 -8t26.5 -12l13 -5l16 -1v-5h-14l-56 23q-6 5 -13 10q-3 2 -6 3t-4 1h-2l-33 -18l-52 -13v-5q-3 -1 -6 -2.5t-5.5 -4.5t-4.5 -5t-4.5 -6.5t-3.5 -6t-3.5 -6.5t-2.5 -6q-27 -54 -39 -70q-1 -3 -0.5 -7.5t2.5 -8.5l1 -5q6 -70 6 -79
q1 -7 27 -40q6 -8 8.5 -14.5t3 -16t2.5 -17.5q7 -32 16 -60q-31 -11 -63 -18zM735 202v-129h-440v129h-1v125h-56l123 129l38 -39l116 122l116 -122l37 39l124 -129h-57v-125v0zM395 168q14 0 24 -10t10 -24v-56h-68v56q0 14 10 24t24 10zM515.5 184q14.5 0 24.5 -10t10 -24
v-72h-69v72q0 14 10 24t24.5 10zM636 168q14 0 24 -10t10 -24v-56h-68v56q0 14 10 24t24 10zM245 118l6 7l6 -7v-45h-12v45zM780 118l6 7l6 -7v-45h-12v45zM753 118l6 7l6 -7v-45h-12v45zM726 118l6 7l6 -7v-45h-12v45zM700 118l6 7l6 -7v-45h-12v45zM673 118l6 7l6 -7v-45
h-12v45zM646 118l6 7l6 -7v-45h-12v45zM619 118l6 7l6 -7v-45h-12v45zM593 118l6 7l6 -7v-45h-12v45zM566 118l6 7l6 -7v-45h-12v45zM539 118l6 7l6 -7v-45h-12v45zM512 118l6 7l6 -7v-45h-12v45zM486 118l6 7l5 -7v-45h-11v45zM459 118l6 7l6 -7v-45h-12v45zM432 118l6 7
l6 -7v-45h-12v45zM405 118l6 7l6 -7v-45h-12v45zM379 118l6 7l5 -7v-45h-11v45zM352 118l6 7l6 -7v-45h-12v45zM325 118l6 7l6 -7v-45h-12v45zM298 118l6 7l6 -7v-45h-12v45zM272 118l5 7l6 -7v-45h-11v45zM228 103h581v-10h-581v10zM642 325h54v-73h-54v73zM335 325h54v-73
h-54v73zM515.5 332q14.5 0 24.5 -10t10 -24v-73h-69v73q0 14 10 24t24.5 10zM515 435q14 0 23.5 -9.5t9.5 -23.5h-66q0 14 9.5 23.5t23.5 9.5zM515 435h1v-25q1 -1 2 -1l12 23l2 -2l-11 -23q1 0 1 -1l20 14l2 -2l-20 -15v-1h-4v0v0v0v0v0v0v0v0v0v0v1v0v0v0v0v0v0v0v0v0v0v0
v0v0v0v0v0v0v0v0v0h-1v0v0v0v0v0v0v0v0v0v0v0v0v0v0v0v0v0v1v0v0v0v0h-1h1v0v0h-1v0v1v0v0v0v0v0v0v0v0v0v0v0v0v0h-1v0v0v0v0v0v0v0v0v0v0v0v0v0v1v0v0v0v0v0v0h-1v0v0v0v0v0v0v0v0v0v0v0v0v0v0v0v0v0v0v0h-1v0v0v0v0v0h-1v0v0v0v0v0v0v0v0v0v0v0v0v0h-1v0v0v0v0v0v0v0v0v0
v0v0v0v0v0v0v0v0v0v-1v0v0v0h-1v0v0v0v0v0h-1v0v0v-1v0v0v0v0v0v0h-1v-1v0v0v0v0v0v0v0v0v0v0v0v0v0v0v0v0v0v0v0v0v0v0v0v0v0v0v0v0v0v0v0v0v0v0v0v-1v0v0v0v0v0v0h-4v1l-21 15l2 2l20 -14q1 1 2 1l-12 23q6 4 14 5v-26q2 1 3 1l-1 25h1h1zM515.5 627q11.5 0 19 -8t7.5 -19
h-53q0 11 7.5 19t19 8zM515.5 627h1.5v-21q1 0 1 -1l10 19q1 -1 2 -1l-9 -19q0 -1 1 -1l16 12q1 -1 1 -2l-16 -13v0h-3v0v0v0v0v0v0v0v0v0v0v0v0h-1v0v0v0v0v0v0v0v0v0v0v0v1v0v0v0v0v0v0v0v0v0v0v0v0v0v0v0v0v0v0v0v0v0q0 1 -1 1h1v0v0v0v0h-1v0v0v0v0v0v0v0v0v0v0v0v0v0v0
v0v0v0v0v0v0v0v0v0v0h-1v1v0v0v0v0v0v0v0v0v0v0v0v0v0v0v0v0v0v0v0h-1v0v0v0v0v0v0v0v0v0v0v0h-1v0v0v0v0v0v0v0v0v0h-1v0v0v0v0v0v0v0v0v0v0v0v0v0v0v0v0v0v0v0v0v0v0v0v0v-1v0v0v0v0h-1v0v0v0q-1 0 -2 -1l2 1q-1 0 -1 -1l1 1h-1v-1v0v0v0v0v0v0v0v0v0v0v0v0v0v0v0v0v0v0v0
v0v0v0v0v-1v0v0v0v0v0v0v0h-1v0v0v0v0v0v0v0v0v0h-3v0l-16 13q0 1 1 2l16 -12q1 1 3 2l-11 18q1 0 2 1l10 -19q1 1 2 1l-1 21h1.5zM540 248l3 4l4 -4v-23h-7v23zM526 248l4 4l3 -4v-23h-7v23zM512 248l4 4l3 -4v-23h-7v23zM499 248l3 4l3 -4v-23h-6v23zM485 248l3 4l3 -4
v-23h-6v23zM481 240h69v-4h-69v4zM352 325h2v-15h16v15h3v-15h16v-2h-16v-13h16v-3h-16v-12h16v-3h-16v-12h16v-3h-16v-10h-3v10h-16v-10h-2v10h-17v3h17v12h-17v3h17v12h-17v3h17v13h-17v2h17v15zM354 308v-13h16v13h-16zM354 292v-12h16v12h-16zM354 277v-12h16v12h-16z
M658 325h3v-15h16v15h2v-15h17v-2h-17v-13h17v-3h-17v-12h17v-3h-17v-12h17v-3h-17v-10h-2v10h-16v-10h-3v10h-16v3h16v12h-16v3h16v12h-16v3h16v13h-16v2h16v15zM661 308v-13h16v13h-16zM661 292v-12h16v12h-16zM661 277v-12h16v12h-16zM680 634l-51 -11q9 1 20.5 -5
t12.5 -13q3 2 7.5 0.5t5 -1t3.5 -3t4 -4.5q15 5 25 -5q7 -8 10 -8q2 0 3.5 1.5l3.5 3.5l3 3q9 7 21 6q12 11 23 7q1 6 12 12.5t21 5.5l-50 11q-4 -16 -15 -21q-8 -4 -11 12q2 1 -1 7q-2 2 -3.5 1t-2.5 -3l-1 -3h-3h-3l-4 7q-2 0 -3 -2l-1 -7q-5 -25 -20 -4q-4 7 -6 13z
M725 625l-7 -5l6 -1zM725 625l-7 -5v0l7 4q0 -2 -1 -4zM709 625l6 -5l-5 -1zM709 625l6 -5v0l-6 4q-1 -2 0 -4v5zM160 477l-62 -47q12 7 31 6t24 -9q6 4 11 5.5t6.5 1.5t7 -2t7.5 -3q17 16 37 9q15 -6 18 -4q2 1 3.5 3.5t3 7t2.5 6.5q7 14 24 21l1 2q2 7 4 10.5t7.5 6.5
t14.5 4q-3 9 7.5 24.5t23.5 21.5l-72 -17q3 -22 -6 -36q-9 -13 -24 7q2 3 -6 9q-4 2 -5.5 -0.5t-1.5 -6.5l1 -4q-4 -2 -4 -3q-1 1 -4 -1l-2 2t-3.5 3t-4.5 1.5t-2 -4.5q-1 -4 0 -6.5t2 -3.5v0q6 -25 -8 -23q-17 2 -31 19zM225 494l-6 -12q5 -1 8 2q1 2 0.5 4t-1.5 4z
M225 494l-6 -12v0l6 10q3 -3 3 -7q0 2 -0.5 4t-1.5 3zM203 483l12 -3q-2 -4 -6 -4q-2 0 -3.5 1.5t-1.5 3.5zM203 483l12 -3v0l-11 2q1 -4 4 -6q-2 0 -3 2t-1 4zM345 -100q24 11 29 19t-4 13.5t-22 10.5t-24 14t-10 20q1 16 24 21.5t70 10t80 13.5q14 4 23 8.5t13 8t4.5 7.5
t-2 7.5t-6 6.5t-8 5t-8.5 3.5t-6.5 2.5l-2.5 1q64 2 95 -26q27 -24 -9 -43q-5 -3 -10 -5q-26 -11 -37 -18.5t-6.5 -14.5t20.5 -12t48 -11q33 -7 87 -41q-83 -29 -171 -29q-86 0 -167 28zM173 160h3q2 0 2 -2v-68q0 -2 -2 -2h-3q-1 0 -1 2v68q0 2 1 2zM169 92h9
q7 0 12.5 -5.5t5.5 -12.5v-19h-46v19q0 7 5.5 12.5t13.5 5.5zM169 89h8q6 0 10.5 -5t4.5 -12v-17h-39v17q0 7 4.5 12t11.5 5zM152 139v3q0 2 1 2h43q2 0 2 -2v-2q0 -2 -2 -2h-42q-2 0 -2 1zM912 628q2 -3 -2 -5q-5 -4 -5 2q-1 2 2 3q3 3 5 0zM1020 449v-2.5v-1.5q0 -1 -1 -2
q-4 -2 -5.5 1t1.5 5t5 0zM366.5 788q3.5 0 3.5 -4.5t-3.5 -4.5t-3.5 4.5t3.5 4.5zM641.5 773q3.5 0 3.5 -4t-3.5 -4t-3.5 4t3.5 4zM193.5 767q3.5 0 3.5 -4.5t-3.5 -4.5t-3.5 4.5t3.5 4.5zM151.5 719q3.5 0 3.5 -4.5t-3.5 -4.5t-3.5 4.5t3.5 4.5zM252.5 713q3.5 0 3.5 -4
t-3.5 -4t-3.5 4t3.5 4zM331.5 738q3.5 0 3.5 -4t-3.5 -4t-3.5 4t3.5 4zM291.5 810q3.5 0 3.5 -4.5t-3.5 -4.5t-3.5 4.5t3.5 4.5zM202.5 683q3.5 0 3.5 -4.5t-3.5 -4.5t-3.5 4.5t3.5 4.5zM262 774q3 0 3 -4t-3 -4t-3 4t3 4zM145.5 648q3.5 0 3.5 -4t-3.5 -4t-3.5 4t3.5 4z
M693.5 795q3.5 0 3.5 -4t-3.5 -4t-3.5 4t3.5 4zM576.5 785q3.5 0 3.5 -4.5t-3.5 -4.5t-3.5 4.5t3.5 4.5zM418.5 861q3.5 0 3.5 -4t-3.5 -4t-3.5 4t3.5 4zM554.5 855q3.5 0 3.5 -4t-3.5 -4t-3.5 4t3.5 4zM69.5 548q3.5 0 3.5 -4t-3.5 -4t-3.5 4t3.5 4zM27.5 500q3.5 0 3.5 -4
t-3.5 -4t-3.5 4t3.5 4zM167.5 592q3.5 0 3.5 -4.5t-3.5 -4.5t-3.5 4.5t3.5 4.5zM78.5 465q3.5 0 3.5 -4.5t-3.5 -4.5t-3.5 4.5t3.5 4.5zM137.5 556q3.5 0 3.5 -4.5t-3.5 -4.5t-3.5 4.5t3.5 4.5zM21 430q3 0 3 -4t-3 -4t-3 4t3 4zM802.5 763q1.5 -3 -2 -5t-5.5 1t2 5t5.5 -1z
M739 774q2 -3 -1.5 -5.5t-5.5 0.5t1.5 5.5t5.5 -0.5zM788 685q2 -3 -1.5 -5t-5.5 1t1.5 5t5.5 -1zM851.5 632q1.5 -3 -2 -5.5t-5 0.5t2 5.5t5 -0.5zM891 703q2 -3 -1.5 -5t-5.5 1t1.5 5t5.5 -1zM736 711.5q2 -2.5 -1.5 -5t-5.5 0.5t1.5 5t5.5 -0.5zM845 709q2 -3 -1.5 -5
t-5.5 1t1.5 5t5.5 -1zM676 742q2 -3 -1.5 -5.5t-5.5 0.5t1.5 5.5t5.5 -0.5z" />
    <glyph glyph-name="mail" unicode="&#xe63e;" horiz-adv-x="1024" 
d="M872 576q0 20 -14 34t-34 14h-624q-20 0 -34 -14t-14 -34l360 -240zM152 516v-324q0 -20 14 -34t34 -14h624q20 0 34 14t14 34v324l-360 -240z" />
    <glyph glyph-name="address" unicode="&#xe63f;" horiz-adv-x="1024" 
d="M417 139q-65 -7 -105 -22t-40 -33q0 -24 65 -41t159 -19zM607 139l-79 -115q94 2 159 19t65 41q0 18 -40 33t-105 22zM752 504q0 99 -70.5 169.5t-169.5 70.5t-169.5 -70.5t-70.5 -169.5q0 -64 32 -120v0l208 -300l208 300v0q32 56 32 120zM512 384q-50 0 -85 35t-35 85
t35 85t85 35t85 -35t35 -85t-35 -85t-85 -35z" />
    <glyph glyph-name="worktime" unicode="&#xe640;" horiz-adv-x="1024" 
d="M512 744q-149 0 -254.5 -105.5t-105.5 -254.5t105.5 -254.5t254.5 -105.5t254.5 105.5t105.5 254.5t-105.5 254.5t-254.5 105.5zM618 278q-9 -9 -21.5 -9t-20.5 9l-85 85q-4 4 -7 9q-2 6 -2 12v240q0 12 9 21t21.5 9t21 -9t8.5 -21v-228l76 -76q9 -8 9 -20.5t-9 -21.5z
" />
    <glyph glyph-name="desk" unicode="&#xe641;" horiz-adv-x="1024" 
d="M440 420h-252q-15 0 -25.5 10.5t-10.5 25.5v252q0 15 10.5 25.5t25.5 10.5h252q15 0 25.5 -10.5t10.5 -25.5v-252q0 -15 -10.5 -25.5t-25.5 -10.5zM836 420h-252q-15 0 -25.5 10.5t-10.5 25.5v252q0 15 10.5 25.5t25.5 10.5h252q15 0 25.5 -10.5t10.5 -25.5v-252
q0 -15 -10.5 -25.5t-25.5 -10.5zM440 24h-252q-15 0 -25.5 10.5t-10.5 25.5v252q0 15 10.5 25.5t25.5 10.5h252q15 0 25.5 -10.5t10.5 -25.5v-252q0 -15 -10.5 -25.5t-25.5 -10.5zM836 24h-252q-15 0 -25.5 10.5t-10.5 25.5v252q0 15 10.5 25.5t25.5 10.5h252
q15 0 25.5 -10.5t10.5 -25.5v-252q0 -15 -10.5 -25.5t-25.5 -10.5z" />
    <glyph glyph-name="data" unicode="&#xe642;" horiz-adv-x="1024" 
d="M392 92q-8 0 -8 -8v-15q0 -7 8 -7t8 7v15q0 8 -8 8zM400 129q0 7 -8 7t-8 -7v-15q0 -8 8 -8t8 8v15zM400 174q0 8 -8 8t-8 -8v-15q0 -7 8 -7t8 7v15zM400 219q0 7 -8 7t-8 -7v-15q0 -8 8 -8t8 8v15zM400 399q0 7 -8 7t-8 -7v-15q0 -8 8 -8t8 8v15zM400 354q0 8 -8 8
t-8 -8v-15q0 -7 8 -7t8 7v15zM400 264q0 8 -8 8t-8 -8v-15q0 -7 8 -7t8 7v15zM400 444q0 8 -8 8t-8 -8v-15q0 -7 8 -7t8 7v15zM400 309q0 7 -8 7t-8 -7v-15q0 -8 8 -8t8 8v15zM640 129q0 7 -8 7t-8 -7v-15q0 -8 8 -8t8 8v15zM632 92q-8 0 -8 -8v-15q0 -7 8 -7t8 7v15
q0 8 -8 8zM640 174q0 8 -8 8t-8 -8v-15q0 -7 8 -7t8 7v15zM640 219q0 7 -8 7t-8 -7v-15q0 -8 8 -8t8 8v15zM857 54h-658l189 405h1.5h2.5q10 0 19 5l177 -177q-1 -4 -1 -8q0 -19 13 -32t32 -13t32 13t13 32q0 15 -9 27l166 356v-8q0 -8 8 -8t8 8v15q0 7 -8 7h-0.5h-0.5l4 8
q11 1 19 9.5t8 20.5t-9 21t-21 9t-21 -9t-9 -21q0 -9 5 -17l-174 -374q-6 1 -11 1q-16 0 -28 -10l-172 171q5 9 5 19q0 19 -13 32t-32 13t-32 -13t-13 -32t13 -32l-178 -382v639q0 15 -15 15t-15 -15v-705h705q15 0 15 15t-15 15zM850 264q0 8 -8 8t-8 -8v-15q0 -7 8 -7t8 7
v15zM850 219q0 7 -8 7t-8 -7v-15q0 -8 8 -8t8 8v15zM850 129q0 7 -8 7t-8 -7v-15q0 -8 8 -8t8 8v15zM850 309q0 7 -8 7t-8 -7v-15q0 -8 8 -8t8 8v15zM842 92q-8 0 -8 -8v-15q0 -7 8 -7t8 7v15q0 8 -8 8zM850 174q0 8 -8 8t-8 -8v-15q0 -7 8 -7t8 7v15zM850 354q0 8 -8 8
t-8 -8v-15q0 -7 8 -7t8 7v15zM850 534q0 8 -8 8t-8 -8v-15q0 -7 8 -7t8 7v15zM850 579q0 7 -8 7t-8 -7v-15q0 -8 8 -8t8 8v15zM850 624q0 8 -8 8t-8 -8v-15q0 -7 8 -7t8 7v15zM850 399q0 7 -8 7t-8 -7v-15q0 -8 8 -8t8 8v15zM850 489q0 7 -8 7t-8 -7v-15q0 -8 8 -8t8 8v15z
M850 444q0 8 -8 8t-8 -8v-15q0 -7 8 -7t8 7v15z" />
    <glyph glyph-name="chat" unicode="&#xe643;" horiz-adv-x="1024" 
d="M692 672h-468q-15 0 -25.5 -10.5t-10.5 -25.5v-432l72 108h432q15 0 25.5 10.5t10.5 25.5v288q0 15 -10.5 25.5t-25.5 10.5zM800 564h-36v-216q0 -30 -21 -51t-51 -21h-360v-36q0 -15 10.5 -25.5t25.5 -10.5h396l72 -108v432q0 15 -10.5 25.5t-25.5 10.5z" />
    <glyph glyph-name="appointment" unicode="&#xe644;" horiz-adv-x="1024" 
d="M512 744q-149 0 -254.5 -105.5t-105.5 -254.5t105.5 -254.5t254.5 -105.5t254.5 105.5t105.5 254.5t-105.5 254.5t-254.5 105.5zM512 64q-132 0 -226 94t-94 226t94 226t226 94t226 -94t94 -226t-94 -226t-226 -94zM512 654q-112 0 -191 -79t-79 -191t79 -191t191 -79
t191 79t79 191t-79 191t-191 79zM592 304q-5 -5 -12.5 -5t-12.5 5l-68 67q-5 6 -5 13v180q0 7 5.5 12.5t12.5 5.5t12.5 -5.5t5.5 -12.5v-172l62 -63q5 -5 5 -12.5t-5 -12.5z" />
    <glyph glyph-name="unlock" unicode="&#xe620;" 
d="M823 896h-135q-83 0 -142.5 -59.5t-59.5 -143.5v-202h-423q-20 0 -35 -15t-15 -36v-507q0 -21 15 -35.5t35 -14.5h575q21 0 35.5 14.5t14.5 35.5v507q0 21 -14.5 36t-35.5 15h-17v202q0 28 19.5 48t47.5 20h135q28 0 48 -20t20 -48v-202h135v202q0 84 -59.5 143.5
t-143.5 59.5zM418 18h-135l29 147q-12 8 -20.5 24.5t-8.5 30.5q0 28 20 48t48 20t47.5 -20t19.5 -48v0q0 -14 -8.5 -30.5t-20.5 -24.5z" />
    <glyph glyph-name="exit" unicode="&#xe621;" 
d="M489 35h-328v704h328q31 0 53.5 22.5t22.5 53.5t-22.5 53t-53.5 22h-403v0q-28 0 -50 -19.5t-25 -47.5v-435.5v-435.5q3 -28 25 -48t50 -20v0h403q31 0 53.5 22t22.5 53.5t-22.5 53.5t-53.5 22zM1015 444q-7 7 -117.5 121.5t-147.5 151.5q-62 62 -73 14l-2 -14v-208
l-188 1v0q-30 0 -52 -22t-22 -52v0v-87v0q0 -30 22 -51.5t52 -21.5h188v-185l3 -20q14 -38 72 20q36 36 145.5 149.5t119.5 123.5q16 16 19.5 30.5t-1.5 25.5t-18 24z" />
    <glyph glyph-name="qrcode" unicode="&#xe622;" 
d="M902 -125h-191v127h127v0q26 0 45 18.5t19 44.5v127h127v-190q0 -53 -37.5 -90t-89.5 -37zM965 319h-888q-27 0 -45.5 18.5t-18.5 45t18.5 45t45.5 18.5h888q26 0 45 -18.5t19 -45t-19 -45t-45 -18.5zM902 700q0 26 -19 44.5t-45 18.5h-127v127h191q52 0 89.5 -37
t37.5 -90v-190h-127v127zM140 700v-127h-127v190q0 53 37.5 90t89.5 37h191v-127h-127v0q-27 0 -45.5 -18.5t-18.5 -44.5zM140 65q0 -26 18.5 -44.5t45.5 -18.5v0h127v-127h-191q-52 0 -89.5 37t-37.5 90v190h127v-127z" />
    <glyph glyph-name="home" unicode="&#xe623;" 
d="M1041 297l-520 404l-521 -404v165l521 404l520 -404v-165zM911 312v-391h-260v260h-260v-260h-260v391l390 292z" />
    <glyph glyph-name="bell" unicode="&#xe624;" 
d="M1030 96q0 58 -14 103t-36 72.5t-49.5 49.5t-54.5 42t-49.5 42.5t-36.5 56.5t-14 79q0 27 -5 48q-12 84 -64 146.5t-125 83.5q2 5 2 12q0 25 -19 42.5t-45 17.5t-44.5 -17.5t-18.5 -42.5q0 -6 1 -12q-82 -23 -136 -98.5t-56 -173.5v-6q0 -39 -11 -71t-29 -52t-41 -40
t-46.5 -35.5t-46.5 -38.5t-41 -49t-29 -67t-11 -92q0 -56 112.5 -99.5t284.5 -55.5q15 -28 48 -47.5t64 -19.5v0v0q32 0 65 19.5t47 47.5q172 12 284.5 55.5t112.5 99.5v1zM832 42q-82 -21 -185 -30q-4 49 -40.5 82.5t-86 33.5t-86 -33.5t-41.5 -82.5q-103 9 -185 30
q-90 24 -123 54q33 30 123 54q134 36 312.5 36t311.5 -36q90 -24 123 -54q-33 -30 -123 -54z" />
    <glyph glyph-name="print" unicode="&#xe625;" 
d="M262 837h518v-129h-518v129zM974 643h-906q-27 0 -46 -19t-19 -46v-323q0 -27 19 -46t46 -19h194v-259h518v259h194q27 0 46 19t19 46v323q0 27 -19 46t-46 19zM715 -4h-388v323h388v-323zM989 545.5q0 -19.5 -14 -33t-33.5 -13.5t-33 13.5t-13.5 33t13.5 33.5t33 14
t33.5 -14t14 -33.5z" />
    <glyph glyph-name="lock" unicode="&#xe626;" 
d="M817 490h-17v203q0 84 -59.5 143.5t-143.5 59.5h-136q-84 0 -143.5 -59.5t-59.5 -143.5v-203h-17q-21 0 -36 -15t-15 -36v-508q0 -21 15 -36t36 -15h576q21 0 35.5 15t15.5 36v508q-1 21 -15.5 36t-35.5 15zM597 15h-136l30 148q-13 8 -21.5 24.5t-8.5 31.5v0
q0 28 20 47.5t48 19.5t48 -19.5t20 -47.5q0 -36 -30 -56zM664 490h-271v203q0 28 20 47.5t48 20.5h136q28 0 47.5 -20t19.5 -48v-203z" />
    <glyph glyph-name="leaf" unicode="&#xe628;" 
d="M725 896q-34 -57 -69.5 -95.5t-68 -58.5t-65.5 -33t-68 -23.5t-69 -23.5t-74.5 -39.5t-79.5 -66.5q-50 -51 -76.5 -108.5t-28 -109.5t14 -100t47.5 -84.5t75 -58.5q110 56 213.5 177t182.5 294q2 -7 5 -18t7 -47.5t3 -74.5t-12 -94t-33 -109.5t-66 -118t-104 -122.5
q52 -62 122 -74.5t135 18.5t120.5 103t80.5 171q76 299 -192 696zM108 -64q1 -4 1.5 -8t5 -13.5t11.5 -17t22 -13.5t35 -6q18 0 54 17.5t89 58.5t106.5 97.5t108.5 147.5t94 196q-42 -74 -93 -139t-97 -109.5t-96.5 -82t-87.5 -59.5t-74 -39t-52.5 -22t-26.5 -8z" />
    <glyph glyph-name="key" unicode="&#xe629;" horiz-adv-x="1038" 
d="M711 896q-87 0 -160.5 -43t-116.5 -116.5t-43 -160.5q0 -30 6 -59l-390 -389v-192q0 -26 19 -45t45 -19h64v64h128v128h128v128h128l83 83q53 -19 109 -19v0q87 0 161 43t116.5 116.5t42.5 160.5t-42.5 160.5t-116.5 116.5t-161 43zM807 576q-39 1 -66.5 29t-27.5 67
t27.5 67t66.5 29q39 -1 67 -29t28 -67t-28 -67t-67 -29z" />
    <glyph glyph-name="link1" unicode="&#xe62a;" 
d="M958 816l-4 4q-70 70 -169.5 70t-169.5 -70l-216 -216q-70 -70 -70 -169.5t70 -169.5l4 -4q12 -11 25 -21l79 79q-15 8 -26 20l-4 4q-38 38 -38 91.5t38 91.5l216 216q37 38 91 38t92 -38l4 -4q38 -38 38 -91.5t-38 -91.5l-98 -98q10 -25 17.5 -61.5t7.5 -63.5v-6
l151 151q70 70 70 169.5t-70 169.5zM639 505q-12 11 -25 21l-79 -79q15 -9 26 -20l4 -4q38 -38 38 -91.5t-38 -91.5l-216 -216q-38 -38 -91.5 -38t-91.5 38l-4 4q-38 38 -38 91.5t38 91.5l97 98q-10 25 -17 61.5t-7 63.5v6l-151 -151q-70 -70 -70 -169.5t70 -169.5l4 -4
q70 -70 169.5 -70t169.5 70l216 216q70 70 70 169.5t-70 169.5z" />
    <glyph glyph-name="control-" unicode="&#xe62b;" horiz-adv-x="1045" 
d="M458 776v17q0 20 -14.5 34.5t-34.5 14.5h-164q-20 0 -34.5 -14.5t-14.5 -34.5v-17h-196v-131h196v-16q0 -20 14.5 -34.5t34.5 -14.5h164q20 0 34.5 14.5t14.5 34.5v16h588v131h-588zM261 645v131h131v-131h-131v0zM850 466q0 20 -14.5 34.5t-34.5 14.5h-164
q-20 0 -34.5 -14.5t-14.5 -34.5v-17h-588v-130h588v-17q0 -20 14.5 -34.5t34.5 -14.5h164q20 0 34.5 14.5t14.5 34.5v17h196v130h-196v17zM654 319v130h130v-130h-130v0zM458 139q0 20 -14.5 34.5t-34.5 14.5h-164q-20 0 -34.5 -14.5t-14.5 -34.5v-16h-196v-131h196v-17
q0 -20 14.5 -34.5t34.5 -14.5h164q20 0 34.5 14.5t14.5 34.5v17h588v131h-588v16zM261 -8v131h131v-131h-131z" />
    <glyph glyph-name="control-1" unicode="&#xe62c;" 
d="M900 449h16q20 0 34 14t14 34v160q0 19 -14 33.5t-34 14.5h-16v191h-128v-191h-16q-19 -1 -33 -15t-15 -33v-160q1 -20 15 -34t33 -14h16v-574h128v574zM772 641h128v-128h-128v128zM597 66q20 1 34 15t14 33v160q0 20 -14 34t-34 14h-16v574h-128v-574h-16
q-19 0 -33 -14t-15 -34v-160q1 -19 15 -33t33 -15h16v-191h128v191h16zM453 258h128v-128h-128v128zM278 449q20 0 34 14t14 34v160q0 19 -14 33.5t-34 14.5h-16v191h-128v-191h-16q-19 -1 -33.5 -15t-14.5 -33v-160q0 -20 14.5 -34t33.5 -14h16v-574h128v574h16zM134 641
h128v-128h-128v128z" />
    <glyph glyph-name="user" unicode="&#xe62d;" 
d="M650 181q-12 2 -18.5 22.5t-7 32.5t-0.5 20q3 3 8 8.5t19 24t25.5 37.5t23 48t16.5 57q21 0 36 28t13.5 63.5t-22.5 52.5q0 2 2 25t3 41.5t-1.5 49.5t-9.5 55.5t-23 51.5t-40 45.5t-63.5 30.5t-89.5 12t-89.5 -12t-63.5 -30.5t-40.5 -46t-23 -51.5t-9 -55t-1.5 -49.5
t3 -41.5t2 -25q-21 -17 -22.5 -52.5t13.5 -63.5t36 -28q8 -45 31 -88.5t42 -65.5l19 -21q0 -8 -0.5 -20t-7.5 -32.5t-18 -22.5q-26 -4 -72 -21.5t-101.5 -47t-104 -64.5t-81.5 -79.5t-33 -86.5h1042q0 42 -33 86.5t-81.5 79.5t-104 64.5t-101.5 47t-72 21.5z" />
    <glyph glyph-name="picture-" unicode="&#xe62e;" 
d="M911 706h-781v-650h781v650zM1041 837v-912h-1041v912h1041zM846 121h-651v130l196 325l267 -325l188 130v-260zM651 543.5q0 -40.5 28.5 -69t69 -28.5t69 28.5t28.5 69t-28.5 69t-69 28.5t-69 -28.5t-28.5 -69z" />
    <glyph glyph-name="open-file" unicode="&#xe62f;" 
d="M846 -39l195 521h-846l-195 -521h846zM130 547l-130 -586v846h293l130 -130h423v-130h-716z" />
    <glyph glyph-name="pencil" unicode="&#xe630;" 
d="M872 896q67 0 113.5 -47t46.5 -113q0 -53 -32 -96l-64 -64l-223 224l64 64q17 13 45 22.5t50 9.5v0zM74 161l-64 -288l287 64l591 591l-223 224zM724 533l-447 -448l-55 56l447 447z" />
    <glyph glyph-name="file" unicode="&#xe631;" 
d="M0 603h1042l-65 -651h-912l-65 651v0zM944 734l33 -66h-912l65 131h358l33 -65h423z" />
    <glyph glyph-name="hammer" unicode="&#xe632;" 
d="M1027 95l-307 306q-14 14 -34 14t-35 -14l-23 -23l-186 187l306 307h-325l-144 -145l-14 15h-69v-69l14 -15l-209 -209l162 -162l210 209l187 -187l-23 -23q-15 -14 -15 -34.5t15 -34.5l306 -306q14 -14 34 -14t35 14l115 115q14 14 14 34t-14 35z" />
    <glyph glyph-name="gear-" unicode="&#xe633;" horiz-adv-x="1038" 
d="M941 286q-40 70 -19 148t91 118l-100 175q-19 -11 -47.5 -19t-50.5 -8v0q-81 0 -138 57.5t-57 138.5h-201v-2q0 -21 -7.5 -49.5t-18.5 -46.5q-40 -70 -118.5 -90.5t-148.5 19.5l-101 -174q19 -11 40 -32t32 -40q41 -70 20 -147.5t-91 -118.5l100 -174q19 11 47.5 18.5
t49.5 7.5h1q80 0 137 -57t57 -138h202v1q0 21 7.5 49.5t18.5 46.5q40 70 118 90.5t148 -19.5l101 174q-19 11 -40 32t-32 40zM519 177q-86 0 -146.5 60.5t-60.5 146.5t60.5 146.5t146.5 60.5t147 -60.5t61 -146.5t-61 -146.5t-147 -60.5z" />
    <glyph glyph-name="date" unicode="&#xe634;" 
d="M905 768h-96v-32q0 -26 -19 -45t-45.5 -19t-45 19t-18.5 45v32h-320v-32q0 -26 -19 -45t-45.5 -19t-45 19t-18.5 45v32h-96q-26 0 -45 -19t-19 -45v-704q0 -26 19 -45t45 -19h768q26 0 45 19t19 45v704q0 26 -19 45t-45 19zM905 0v0h-768v0v576h768v-576zM297 704
q13 0 22.5 9.5t9.5 22.5v128q0 13 -9.5 22.5t-22.5 9.5t-22.5 -9.5t-9.5 -22.5v-128q0 -13 9.5 -22.5t22.5 -9.5zM745 704q13 0 22.5 9.5t9.5 22.5v128q0 13 -9.5 22.5t-22.5 9.5t-22.5 -9.5t-9.5 -22.5v-128q0 -13 9.5 -22.5t22.5 -9.5zM585 512h-320v-64h256v-128h-256
v-64h256v-128h-256v-64h320v448zM713 64h64v448h-128v-64h64v-384zM881 -88h-720q-27 0 -45.5 15t-18.5 41v-32q0 -26 19 -45t45 -19h720q26 0 45 19t19 45v32q0 -26 -18.5 -41t-45.5 -15z" />
    <glyph glyph-name="gear-1" unicode="&#xe635;" 
d="M373 174l41 58l-45 45l-58 -41q-16 9 -34 14l-12 70h-64l-12 -70q-18 -5 -34 -14l-58 41l-45 -45l41 -58q-9 -16 -14 -34l-70 -12v-64l70 -12q5 -18 14 -34l-41 -58l45 -45l58 41q16 -9 34 -14l12 -70h64l11 70q18 5 35 14l58 -41l45 45l-42 58q9 16 15 34l70 12v64
l-70 12q-5 18 -14 34zM232.5 32q-26.5 0 -45 19t-18.5 45.5t18.5 45t45 18.5t45.5 -18.5t19 -45t-19 -45.5t-45.5 -19zM1033 512v64l-68 12q-1 12 -4 24l57 37l-24 59l-67 -14q-6 10 -14 20l39 56l-45 46l-56 -39q-10 7 -20 13l14 67l-59 24l-37 -57q-12 3 -24 5l-12 67h-64
l-12 -67q-12 -2 -24 -5l-37 57l-59 -24l14 -67q-11 -7 -20 -13l-56 39l-46 -46l39 -56q-7 -10 -13 -20l-67 14l-25 -59l58 -37q-3 -10 -5 -24l-67 -12v-64l67 -12q2 -13 5 -24l-58 -37l25 -59l67 14q6 -10 13 -20l-39 -56l46 -45l56 39q10 -8 20 -14l-14 -67l59 -24l37 57
q12 -3 24 -5l12 -67h64l12 67q11 2 24 5l37 -57l59 24l-14 67q10 6 20 14l56 -39l45 45l-39 56q8 11 14 20l67 -14l24 59l-57 37q2 10 5 24zM681 405q-58 0 -98.5 40.5t-40.5 98.5t40.5 98.5t98.5 40.5t98.5 -40.5t40.5 -98.5t-40.5 -98.5t-98.5 -40.5z" />
    <glyph glyph-name="history" unicode="&#xe636;" 
d="M600 825q89 0 171 -35t141 -94t94 -140.5t35 -171.5t-35 -171.5t-94 -140.5t-141 -94t-171 -35v95q143 0 244.5 101.5t101.5 244.5t-101.5 244.5t-245 101.5t-244.5 -101q-77 -77 -96 -182h183l-220 -252l-221 252h162q23 161 147 269.5t290 108.5zM789 447v-126h-252
v315h126v-189h126v0z" />
    <glyph glyph-name="locator" unicode="&#xe637;" 
d="M521 896q-87 0 -160.5 -43t-116.5 -116.5t-43 -160.5q0 -90 33 -195.5t80 -192t94 -160t80 -115.5l33 -41q7 8 18.5 22.5t44.5 60.5t63.5 93.5t67 116t63 132.5t45 139t18.5 140q0 87 -43 160.5t-116.5 116.5t-160.5 43zM520.5 384q-79.5 0 -135.5 56t-56 136t56 136
t135.5 56t136 -56t56.5 -136t-56.5 -136t-136 -56z" />
    <glyph glyph-name="magnifier" unicode="&#xe638;" 
d="M1001 25l-243 206q-37 33 -73 32q38 44 65 117t27 131v1q0 104 -51.5 192.5t-140 140t-193 51.5t-193 -51.5t-139.5 -140t-51 -192.5t51 -192.5t139.5 -140t193.5 -51.5v0q59 0 131.5 27t117.5 65q-2 -36 32 -74l206 -242q27 -30 64.5 -32t64 24.5t24 64t-31.5 64.5z
M393 256q-106 0 -181 75t-75 181t75 181t181 75t181 -75t75 -181t-75 -181t-181 -75z" />
    <glyph glyph-name="mail1" unicode="&#xe639;" horiz-adv-x="1042" 
d="M945 808h-847q-41 0 -69.5 -29t-28.5 -69v-652q0 -40 28.5 -69t69.5 -29h847q41 0 69.5 29t28.5 69v652q0 40 -28.5 69t-69.5 29zM406 377l-276 -214v511zM180 677h683l-342 -256zM417 366l104 -112l105 112l215 -275h-639zM637 377l276 297v-511z" />
    <glyph glyph-name="phone-" unicode="&#xe63a;" 
d="M744 893h-446q-39 0 -67 -28t-28 -68v-826q0 -40 28 -68t67 -28h446q39 0 67 28t28 68v826q0 40 -28 68t-67 28zM394 845h254v-32h-254v32zM521 -61q-26 0 -45 18.5t-19 45t19 45t45 18.5t45 -18.5t19 -45t-19 -45t-45 -18.5zM775 130h-508v636h508v-636z" />
    <glyph glyph-name="talk-" unicode="&#xe63b;" 
d="M984 32q0 -27 17 -54.5t41 -39.5v-15q-15 -2 -30 -2v0q-38 0 -83.5 20t-72.5 47q-36 -9 -74 -9h-1q-108 0 -184 67.5t-76 163.5t76 164t184 68t184.5 -68t76.5 -164q0 -74 -48 -134q-10 -21 -10 -44zM463 847q124 0 229.5 -49t168 -133.5t65.5 -184.5q-68 30 -145 30
q-134 0 -229 -85q-100 -88 -100 -215q0 -60 25 -115q-7 -1 -14 -1q-36 0 -72 5q-68 -68 -149.5 -93t-183.5 -27v24q50 25 83 64.5t33 84.5q0 14 -2 26q-80 53 -126 129.5t-46 163.5q0 102 62 188.5t168.5 137t232.5 50.5z" />
    <glyph glyph-name="screen" unicode="&#xe63c;" horiz-adv-x="1042" 
d="M1043 58v782h-1043v-782h456v-65h-195v-65h521v65h-195v65h456zM130 710h782v-521h-782v521z" />
    <glyph glyph-name="talk-1" unicode="&#xe63d;" horiz-adv-x="1047" 
d="M523.5 744q-84.5 0 -161.5 -27q-71 -24 -126 -69q-105 -85 -105 -199q0 -62 34 -119q35 -59 101 -102q20 -13 37 -39.5t21 -50.5q2 -18 3 -37q12 10 22 21q16 15 43.5 26.5t49.5 11.5q9 0 17 -1q32 -4 65 -4q84 0 161 26q72 25 126 69q105 85 105 199t-105 199
q-54 45 -126 69q-77 27 -161.5 27zM523.5 875q142.5 0 263 -57t190.5 -155t70 -213.5t-70 -213.5t-190.5 -155t-262.5 -57q-41 0 -82 5q-40 -41 -86.5 -68t-96.5 -41t-94.5 -19.5t-99.5 -7.5v28q57 27 94 72t37 96q0 16 -2 30q-90 59 -142 145.5t-52 184.5q0 116 70 214
t190.5 155t263 57z" />
    <glyph glyph-name="talk-2" unicode="&#xe645;" horiz-adv-x="1042" 
d="M521.5 872q141.5 0 261.5 -56.5t189.5 -154t69.5 -212.5t-69.5 -212.5t-189.5 -154t-262 -56.5v0q-41 0 -81 5q-40 -41 -86 -68t-96 -41t-94 -19.5t-99 -6.5v27q56 28 93 72.5t37 95.5q0 15 -2 29q-90 59 -141.5 145t-51.5 184q0 115 70 212.5t190 154t261.5 56.5z" />
    <glyph glyph-name="talk-3" unicode="&#xe646;" horiz-adv-x="1054" 
d="M439.5 853q119.5 0 220.5 -47.5t160 -129.5t59 -178.5t-59 -178.5t-160 -129.5t-221 -47.5q-35 0 -68 4q-65 -65 -140.5 -88t-171.5 -26v23q46 23 76 60.5t30 80.5q0 12 -2 25q-76 50 -119.5 122t-43.5 154q0 97 59 179t160 129.5t220.5 47.5zM912 56q0 -38 22.5 -70
t61.5 -51v-20q-82 2 -144 22t-119 75q-29 -3 -59 -3v0q-130 0 -232 63q99 0 190 31t162 89q72 58 112 134q42 82 42 171q0 12 -1 29q51 -42 79.5 -97t28.5 -115q0 -71 -38 -133t-104 -104q-1 -11 -1 -21z" />
    <glyph glyph-name="talk-4" unicode="&#xe647;" horiz-adv-x="1054" 
d="M439.5 736q-69.5 0 -133.5 -22q-59 -21 -104 -57q-85 -69 -85 -160q0 -49 28 -95q29 -48 82 -83q18 -12 33.5 -35.5t18.5 -45.5l2 -16q4 3 7 7q14 14 38.5 24t44.5 10q7 0 15 -1q26 -3 53 -3q71 0 134 21q59 21 103 57q86 69 86 160.5t-86 159.5q-44 37 -103 57
q-64 22 -133.5 22zM439.5 853q119.5 0 220.5 -47.5t160 -129.5t59 -178.5t-59 -178.5t-160 -129.5t-221 -47.5q-35 0 -68 4q-65 -65 -140.5 -88t-171.5 -26v23q46 23 76 60.5t30 80.5q0 12 -2 25q-76 50 -119.5 122t-43.5 154q0 97 59 179t160 129.5t220.5 47.5zM912 56
q0 -38 22.5 -70t61.5 -51v-20q-82 2 -144 22t-119 75q-29 -3 -59 -3v0q-130 0 -232 63q99 0 190 31t162 89q72 58 112 134q42 82 42 171q0 12 -1 29q51 -42 79.5 -97t28.5 -115q0 -71 -38 -133t-104 -104q-1 -11 -1 -21z" />
    <glyph glyph-name="phone-1" unicode="&#xe648;" 
d="M808 894h-574q-26 0 -44.5 -19t-18.5 -45v-892q0 -26 18.5 -45t44.5 -19h574q26 0 44.5 19t18.5 45v892q0 26 -18.5 45t-44.5 19zM521 -80v0q-21 0 -35.5 14.5t-14.5 35.5v0v0q0 20 14.5 34.5t35.5 14.5v0v0q20 0 34.5 -14.5t14.5 -34.5v0v0q0 -21 -14.5 -35.5
t-34.5 -14.5v0zM808 65h-574v701h574v-701z" />
    <glyph glyph-name="wrench" unicode="&#xe649;" horiz-adv-x="1038" 
d="M1010 78l-460 395q14 26 23.5 65.5t9.5 68.5v1q0 119 -84 203.5t-204 84.5v0q-42 0 -83 -12l166 -167q19 -18 19 -45t-19 -45l-101 -102q-19 -18 -45.5 -18t-45.5 18l-166 167q-13 -41 -13 -84q0 -119 84.5 -203.5t203.5 -84.5q72 0 135 34l395 -461q17 -20 42.5 -21
t44.5 18l102 101q18 19 17 44.5t-21 42.5z" />
    <glyph glyph-name="talk-5" unicode="&#xe64a;" 
d="M984 32q0 -27 17 -54.5t41 -39.5v-15q-15 -2 -30 -2v0q-38 0 -83.5 20t-72.5 47q-36 -9 -74 -9h-1q-108 0 -184 67.5t-76 163.5t76 164t184 68t184.5 -68t76.5 -164q0 -74 -48 -134q-10 -21 -10 -44zM209 647q-93 -76 -93 -176q0 -55 30 -105q31 -53 89 -91
q18 -12 33 -35t18 -45q3 -16 3 -32q11 8 20 18q14 14 38 24t44 10q8 0 15 -1q28 -4 57 -4v-116q-36 0 -72 5q-68 -68 -149.5 -93t-183.5 -27v24q50 25 83 64.5t33 84.5q0 14 -2 26q-80 53 -126 129.5t-46 163.5q0 102 62 188.5t168.5 137t232.5 50.5q124 0 229.5 -49
t168 -133.5t65.5 -184.5q-57 25 -120 30q-16 77 -88 137q-49 39 -112 61q-68 23 -143 23t-143 -23q-63 -22 -111 -61z" />
    <glyph glyph-name="clock" unicode="&#xe64b;" horiz-adv-x="1039" 
d="M667 147l-211 210v283h128v-229l173 -174zM520 896q-104 0 -199 -40.5t-163.5 -109t-109 -163.5t-40.5 -199t40.5 -199t109 -163.5t163.5 -109t199 -40.5t199 40.5t163.5 109t109 163.5t40.5 199t-40.5 199t-109 163.5t-163.5 109t-199 40.5zM519.5 0
q-104.5 0 -192.5 51.5t-139.5 140t-51.5 192.5t51.5 192.5t139.5 140t192.5 51.5t193 -51.5t140 -140t51.5 -192.5t-51.5 -192.5t-140 -140t-193 -51.5z" />
    <glyph glyph-name="paper-" unicode="&#xe64c;" 
d="M912 697l-143 142q-23 24 -63 40.5t-73 16.5h-480q-33 0 -56.5 -23.5t-23.5 -56.5v-864q0 -33 23.5 -56.5t56.5 -23.5h736q33 0 56.5 23.5t23.5 56.5v608q0 33 -16.5 73t-40.5 64zM867 651q5 -4 9 -11h-163v163q7 -4 11 -9zM905 -48q0 -7 -5 -11.5t-11 -4.5h-736
q-7 0 -11.5 5t-4.5 11v864q0 7 4.5 11.5t11.5 4.5h480q7 0 16 -2v-254h254q2 -9 2 -16v-608z" />
    <glyph glyph-name="paper-1" unicode="&#xe64d;" 
d="M841 640h-192v64l-192 192h-448v-768h384v-256h640v576zM841 550l101 -102h-101v102zM457 806l101 -102h-101v102zM73 832h320v-192h192v-448h-512v640zM969 -64h-512v192h192v448h128v-192h192v-448z" />
    <glyph glyph-name="record-" unicode="&#xe64e;" horiz-adv-x="1040" 
d="M808 576v160q0 13 -9.5 22.5t-22.5 9.5h-224v64q0 26 -18.5 45t-45.5 19h-128q-26 0 -45 -19t-19 -45v-64h-224q-13 0 -22.5 -9.5t-9.5 -22.5v-640q0 -13 9.5 -22.5t22.5 -9.5h288v-192h448l192 192v512h-192zM360 832v0h128v0v-64h-128v64zM168 640v64h512v-64h-512z
M808 -38v102h102zM936 128h-192v-192h-320v576h512v-384z" />
    <glyph glyph-name="record-1" unicode="&#xe64f;" horiz-adv-x="1039" 
d="M680 768h-128v64q0 26 -19 45t-45 19h-128q-26 0 -45 -19t-19 -45v-64h-128v-128h512v128v0zM488 768h-128v64v0h128v0v-64v0zM808 576v160q0 13 -9.5 22.5t-22.5 9.5h-64v-64h32v-128h-384v-448h-256v576h32v64h-64q-13 0 -22.5 -9.5t-9.5 -22.5v-640q0 -13 9.5 -22.5
t22.5 -9.5h288v-192h448l192 192v512h-192zM808 -38v102h101zM936 128h-192v-192h-320v576h512v-384z" />
    <glyph glyph-name="record-2" unicode="&#xe650;" 
d="M649 640v256h-448l-192 -192v-576h384v-256h640v768h-384zM201 806v-102h-102zM73 192v448h192v192h320v-192l-192 -192v-256h-320zM585 550v-102h-102zM969 -64h-512v448h192v192h320v-640z" />
    <glyph glyph-name="record-3" unicode="&#xe651;" horiz-adv-x="1039" 
d="M872 768h-64v-64h32v-512h-256v-256h-384v768h32v64h-64q-13 0 -22.5 -9.5t-9.5 -22.5v-832q0 -13 9.5 -22.5t22.5 -9.5h504l232 232v632q0 13 -9.5 22.5t-22.5 9.5zM648 -64v192h192zM776 768h-128v64q0 26 -19 45t-45 19h-128q-27 0 -45.5 -19t-18.5 -45v-64h-128v-128
h512v128v0zM584 768h-128v64v0h128v0v-64v0z" />
    <glyph glyph-name="text-" unicode="&#xe652;" horiz-adv-x="1038" 
d="M903 896h-768q-39 0 -67.5 -28t-28.5 -68v-832q0 -40 28.5 -68t67.5 -28h768q40 0 68 28t28 68v832q0 40 -28 68t-68 28zM871 0h-704v768h704v-768zM295 320h448v-64h-448v64zM295 192h448v-64h-448v64zM359 608q0 -40 28 -68t68 -28t68 28t28 68v0q0 40 -28 68t-68 28
t-68 -28t-28 -68v0zM519 512h-128q-39 0 -67.5 -19t-28.5 -45v-64h320v64q0 26 -28 45t-68 19z" />
    <glyph glyph-name="record-4" unicode="&#xe653;" 
d="M681 768h-128v64q0 26 -19 45t-45 19h-128q-26 0 -45 -19t-19 -45v-64h-128v-128h512v128v0zM489 768h-128v64v0h128v0v-64zM809 576v160q0 13 -9.5 22.5t-22.5 9.5h-64v-64h32v-128h-192l-192 -192v-256h-256v576h32v64h-64q-13 0 -22.5 -9.5t-9.5 -22.5v-640
q0 -13 9.5 -22.5t22.5 -9.5h288v-192h640v704h-192zM553 485v-101h-101zM937 -64h-512v384h192v192h320v-576z" />
    <glyph glyph-name="text-1" unicode="&#xe654;" horiz-adv-x="1036" 
d="M902 896h-768q-39 0 -67.5 -28t-28.5 -68v-832q0 -40 28.5 -68t67.5 -28h768q40 0 68 28t28 68v832q0 40 -28 68t-68 28zM870 0h-704v768h704v-768v0zM294 448h448v-64h-448v64zM294 320h448v-64h-448v64zM294 192h448v-64h-448v64zM294 576h448v-64h-448v64z" />
    <glyph glyph-name="text-2" unicode="&#xe655;" horiz-adv-x="1037" 
d="M899 708l-121 120q-28 28 -76 48t-87 20h-448q-40 0 -68.5 -28t-28.5 -68v-832q0 -40 28.5 -68t68.5 -28h704q39 0 67.5 28t28.5 68v576q0 40 -20 88t-48 76zM647 760l6 -2q25 -10 35 -20l120 -121q10 -10 20 -34q2 -5 3 -7h-184v184v0zM839 0h-641v768h385v-256h256
v-512z" />
    <glyph glyph-name="text-3" unicode="&#xe656;" 
d="M901 708l-120 120q-28 28 -76 48t-88 20h-448q-40 0 -68 -28t-28 -68v-832q0 -40 28 -68t68 -28h704q40 0 68 28t28 68v576q0 40 -20 88t-48 76zM649 760q3 -1 7 -2q24 -10 34 -20l121 -121q10 -10 20 -34q2 -5 2 -7h-184v184zM841 0h-640v768h384v-256h256v-512v0z
M265 384h512v-64h-512v64zM265 256h512v-64h-512v64zM265 128h512v-64h-512v64z" />
    <glyph glyph-name="bool" unicode="&#xe657;" 
d="M905 768v-832h-672q-40 0 -68 28t-28 68t28 68t68 28h608v768h-640q-53 0 -90.5 -37.5t-37.5 -90.5v-768q0 -53 37.5 -90.5t90.5 -37.5h768v896h-64zM265 64h576v-64h-576v64z" />
    <glyph glyph-name="camera" unicode="&#xe658;" horiz-adv-x="1043" 
d="M310 319q0 -88 62 -150t150 -62t150 62t62 150t-62 150t-150 62t-150 -62t-62 -150zM978 678h-228q-6 26 -10 39t-12.5 33.5t-17.5 31t-24 18.5t-34 8h-261q-18 0 -33 -8t-24 -18.5t-17.5 -31t-12.5 -33.5t-10 -39h-229q-27 0 -46 -19.5t-19 -46.5v-587q0 -27 19 -46
t46 -19h914q26 0 45.5 19t19.5 46v587q0 27 -19.5 46.5t-46.5 19.5zM522 29q-120 0 -205 85t-85 205t85 204.5t205 84.5t204.5 -84.5t84.5 -204.5t-84.5 -205t-204.5 -85zM978 482h-130v65h130v-65z" />
    <glyph glyph-name="disk" unicode="&#xe659;" 
d="M197 -5h648q80 0 137 57t57 138h-1036q0 -81 57 -138t137 -57zM845 125h64v-65h-64v65zM974 773h-906l-65 -519h1036z" />
    <glyph glyph-name="books" unicode="&#xe65a;" 
d="M587 642l246 83l206 -615l-246 -83zM3 27h259v714h-259v-714zM68 611h130v-65h-130v65zM327 27h259v714h-259v-714zM392 611h130v-65h-130v65z" />
    <glyph glyph-name="bag" unicode="&#xe65b;" horiz-adv-x="1043" 
d="M978 678h-260v65q-1 27 -20 46t-46 19h-261q-26 0 -45.5 -19t-19.5 -46v-65h-261q-27 0 -46 -19.5t-19 -46.5v-587q0 -27 19 -46t46 -19h913q27 0 46.5 19t19.5 46v587q0 27 -19.5 46.5t-46.5 19.5zM391 743h1h260v0v-65h-261v65zM978 417h-130v-98q0 -14 -9.5 -23.5
t-23.5 -9.5h-65q-13 0 -22.5 9.5t-9.5 23.5v98h-392v-98q0 -14 -9.5 -23.5t-22.5 -9.5h-66q-13 0 -22.5 9.5t-9.5 23.5v98h-131v65h913v-65z" />
    <glyph glyph-name="cloud" unicode="&#xe65c;" 
d="M1039 269q0 62 -38 109.5t-96 62.5q-3 97 -73 166t-168 69q-57 0 -106.5 -25t-82.5 -67q-17 21 -48.5 36.5t-58.5 15.5v0q-56 0 -96 -39.5t-40 -95.5q0 -9 2 -19q-18 3 -35 3q-82 0 -139 -57.5t-57 -139t57 -139t139 -57.5h664q73 1 124.5 52.5t51.5 124.5z" />
    <glyph glyph-name="download" unicode="&#xe65d;" 
d="M906 552q-2 98 -72.5 167t-169.5 69v0q-48 0 -104 -27t-86 -66q-16 22 -47.5 37.5t-59.5 15.5v0q-56 0 -96 -39.5t-40 -96.5q0 -9 2 -19q-18 3 -36 3q-81 0 -138.5 -57.5t-57.5 -139t57.5 -139.5t138.5 -58h102l222 -222l222 222h121q74 0 125.5 52t51.5 126
q0 62 -38 110t-97 62zM521 72l-195 195h130v196h130v-196h130z" />
    <glyph glyph-name="enlarge" unicode="&#xe65e;" 
d="M1000 25l-242 206q-37 34 -73 32q38 44 64.5 117t26.5 131v1q0 104 -51 192t-139.5 139.5t-192.5 51.5t-192 -51.5t-139.5 -139.5t-51.5 -192t51.5 -192.5t139.5 -139.5t192 -51h1q58 0 130.5 26.5t117.5 64.5q-2 -36 32 -73l206 -242q26 -30 63.5 -32t64 24.5t24.5 64
t-32 63.5zM393 256q-106 0 -180.5 75t-74.5 181t74.5 180.5t180.5 74.5t181 -74.5t75 -180.5t-75 -181t-181 -75zM457 703h-128v-127h-127v-128h127v-128h128v128h128v128h-128v127v0z" />
    <glyph glyph-name="eye" unicode="&#xe65f;" horiz-adv-x="1049" 
d="M525 712q-169 0 -310 -90t-215 -238q74 -148 215 -238t310 -90t309.5 90t215.5 238q-75 148 -215.5 238t-309.5 90zM784 538q38 -25 83 -70t70 -84q-25 -39 -70 -84t-83 -70q-49 -31 -125 -53.5t-134 -22.5v0v0q-58 0 -134 22.5t-125 53.5q-39 25 -84 70t-69 84
q26 42 74.5 89t90.5 72q-16 -43 -16 -89v0q0 -109 77 -186t185.5 -77t185.5 77t77 186q0 46 -16 90q8 -5 13 -8zM525 489v0q0 -41 -29 -70t-69.5 -29t-69.5 29t-29 69.5t29 69.5t69 29v0q41 0 70 -29t29 -69z" />
    <glyph glyph-name="list-" unicode="&#xe660;" 
d="M12 893h255v-255h-255v255zM394 829h636v-127h-636v127zM12 511h255v-254h-255v254zM394 448h636v-128h-636v128zM12 130h255v-255h-255v255zM394 66h636v-127h-636v127z" />
    <glyph glyph-name="narrow" unicode="&#xe661;" horiz-adv-x="1036" 
d="M999 25l-243 206q-37 33 -73 32q38 44 64.5 117t26.5 131v1q0 104 -51 192.5t-139.5 140t-193 51.5t-193 -51.5t-140 -140t-51.5 -192.5t51.5 -192.5t140 -140t192.5 -51.5h1q59 0 131.5 27t117.5 65q-2 -36 32 -74l206 -242q26 -30 64 -32t64 24.5t24 64t-31 64.5z
M390 256q-106 0 -181 75t-75 181t75 181t181 75t181 -75t75 -181t-75 -181t-181 -75zM198 576h384v-128h-384v128z" />
    <glyph glyph-name="list-1" unicode="&#xe662;" 
d="M393 832h640v-128h-640v128zM393 448h640v-128h-640v128zM393 64h640v-128h-640v128zM9 768q0 -53 37.5 -90.5t90.5 -37.5t90.5 37.5t37.5 90.5t-37.5 90.5t-90.5 37.5t-90.5 -37.5t-37.5 -90.5zM9 384q0 -53 37.5 -90.5t90.5 -37.5t90.5 37.5t37.5 90.5t-37.5 90.5
t-90.5 37.5t-90.5 -37.5t-37.5 -90.5zM9 0q0 -53 37.5 -90.5t90.5 -37.5t90.5 37.5t37.5 90.5t-37.5 90.5t-90.5 37.5t-90.5 -37.5t-37.5 -90.5z" />
    <glyph glyph-name="picture-1" unicode="&#xe663;" 
d="M1 806v-844h1040v844h-1040zM976 27h-910v714h910v-714zM716 579v0q0 -40 28.5 -69t69 -29t69 29t28.5 69t-28.5 68.5t-69.5 28.5v0q-40 0 -68.5 -28.5t-28.5 -68.5zM911 92h-780l195 519l260 -324l130 97z" />
    <glyph glyph-name="record-5" unicode="&#xe664;" horiz-adv-x="1039" 
d="M872 768h-64v-64h32v-512h-256v-256h-384v768h32v64h-64q-13 0 -22.5 -9.5t-9.5 -22.5v-832q0 -13 9.5 -22.5t22.5 -9.5h504l232 232v632q0 13 -9.5 22.5t-22.5 9.5zM648 -64v192h192zM776 768h-128v64q0 26 -19 45t-45 19h-128q-27 0 -45.5 -19t-18.5 -45v-64h-128v-128
h512v128v0zM584 768h-128v64v0h128v0v-64v0z" />
    <glyph glyph-name="picture-2" unicode="&#xe665;" 
d="M130 644v-651h912v651h-912zM977 102l-131 217l-147 -123l-113 188l-391 -326v521h782v-477zM260 416.5q0 -40.5 29 -69t69.5 -28.5t69 28.5t28.5 69t-28.5 69t-69 28.5t-69.5 -28.5t-29 -69zM912 775h-912v-651h65v586h847v65z" />
    <glyph glyph-name="no-eye" unicode="&#xe666;" 
d="M851 569q50 -35 104.5 -99t81.5 -118q-73 -146 -211.5 -234.5t-304.5 -88.5v0q-39 0 -91.5 8.5t-89.5 20.5l79 79q50 -11 102 -11q138 0 255 74q38 25 82 69t68 83q-23 37 -65.5 80t-79.5 68zM521 164q-34 0 -66 9l316 316q8 -33 8 -67q0 -107 -75.5 -182.5t-182.5 -75.5
zM973 868h-54l-222 -221q-35 11 -86.5 19.5t-88.5 8.5h-1q-166 0 -304.5 -88.5t-212.5 -234.5q66 -131 183 -215l-183 -183v-54h55l914 914v54zM424 551v0q34 0 62.5 -24t33.5 -58l-111 -110q-34 5 -58 33t-24 63v0q0 40 28.5 68t68.5 28zM116 352q25 41 73 87.5t89 71.5
q-15 -43 -15 -88v-1q0 -87 53 -157l-59 -59q-36 24 -77.5 66.5t-63.5 79.5z" />
    <glyph glyph-name="record-6" unicode="&#xe667;" 
d="M649 640v256h-448l-192 -192v-576h384v-256h640v768h-384zM201 806v-102h-102zM73 192v448h192v192h320v-192l-192 -192v-256h-320zM585 550v-102h-102zM969 -64h-512v448h192v192h320v-640z" />
    <glyph glyph-name="record-7" unicode="&#xe668;" horiz-adv-x="1040" 
d="M808 576v160q0 13 -9.5 22.5t-22.5 9.5h-224v64q0 26 -18.5 45t-45.5 19h-128q-26 0 -45 -19t-19 -45v-64h-224q-13 0 -22.5 -9.5t-9.5 -22.5v-640q0 -13 9.5 -22.5t22.5 -9.5h288v-192h448l192 192v512h-192zM360 832v0h128v0v-64h-128v64zM168 640v64h512v-64h-512z
M808 -38v102h102zM936 128h-192v-192h-320v576h512v-384z" />
    <glyph glyph-name="paper-2" unicode="&#xe669;" 
d="M912 697l-143 142q-23 24 -63 40.5t-73 16.5h-480q-33 0 -56.5 -23.5t-23.5 -56.5v-864q0 -33 23.5 -56.5t56.5 -23.5h736q33 0 56.5 23.5t23.5 56.5v608q0 33 -16.5 73t-40.5 64zM867 651q5 -4 9 -11h-163v163q7 -4 11 -9zM905 -48q0 -7 -5 -11.5t-11 -4.5h-736
q-7 0 -11.5 5t-4.5 11v864q0 7 4.5 11.5t11.5 4.5h480q7 0 16 -2v-254h254q2 -9 2 -16v-608z" />
    <glyph glyph-name="record-8" unicode="&#xe66a;" horiz-adv-x="1039" 
d="M680 768h-128v64q0 26 -19 45t-45 19h-128q-26 0 -45 -19t-19 -45v-64h-128v-128h512v128v0zM488 768h-128v64v0h128v0v-64v0zM808 576v160q0 13 -9.5 22.5t-22.5 9.5h-64v-64h32v-128h-384v-448h-256v576h32v64h-64q-13 0 -22.5 -9.5t-9.5 -22.5v-640q0 -13 9.5 -22.5
t22.5 -9.5h288v-192h448l192 192v512h-192zM808 -38v102h101zM936 128h-192v-192h-320v576h512v-384z" />
    <glyph glyph-name="save" unicode="&#xe66b;" 
d="M905 896h-896v-1024h1024v896zM521 768h128v-256h-128v256zM905 0h-768v768h64v-320h576v320h75l53 -53v-715z" />
    <glyph glyph-name="record-9" unicode="&#xe66c;" 
d="M681 768h-128v64q0 26 -19 45t-45 19h-128q-26 0 -45 -19t-19 -45v-64h-128v-128h512v128v0zM489 768h-128v64v0h128v0v-64zM809 576v160q0 13 -9.5 22.5t-22.5 9.5h-64v-64h32v-128h-192l-192 -192v-256h-256v576h32v64h-64q-13 0 -22.5 -9.5t-9.5 -22.5v-640
q0 -13 9.5 -22.5t22.5 -9.5h288v-192h640v704h-192zM553 485v-101h-101zM937 -64h-512v384h192v192h320v-576z" />
    <glyph glyph-name="structure" unicode="&#xe66d;" horiz-adv-x="1043" 
d="M994 156h-16v212q0 47 -33.5 80.5t-80.5 33.5h-277v130h16q20 0 34.5 14.5t14.5 34.5v163q0 20 -14.5 34.5t-34.5 14.5h-163q-20 0 -34.5 -14.5t-14.5 -34.5v-163q0 -20 14.5 -34.5t34.5 -14.5h16v-130h-277q-47 0 -80.5 -33.5t-33.5 -80.5v-212h-16q-20 0 -34.5 -14.5
t-14.5 -34.5v-163q0 -20 14.5 -34.5t34.5 -14.5h163q20 0 34.5 14.5t14.5 34.5v163q0 20 -14.5 34.5t-34.5 14.5h-16v195h260v-195h-16q-20 0 -34.5 -14.5t-14.5 -34.5v-163q0 -20 14.5 -34.5t34.5 -14.5h163q20 0 34.5 14.5t14.5 34.5v163q0 20 -14.5 34.5t-34.5 14.5h-16
v195h261v-195h-17q-20 0 -34 -14.5t-14 -34.5v-163q0 -20 14 -34.5t34 -14.5h163q21 0 35 14.5t14 34.5v163q0 20 -14 34.5t-35 14.5zM196 -40h-131v131h131v-131v0zM587 -40h-131v131h131v-131zM456 677v131h131v-131h-131zM978 -40h-130v131h130v-131z" />
    <glyph glyph-name="text-4" unicode="&#xe66e;" horiz-adv-x="1038" 
d="M903 896h-768q-39 0 -67.5 -28t-28.5 -68v-832q0 -40 28.5 -68t67.5 -28h768q40 0 68 28t28 68v832q0 40 -28 68t-68 28zM871 0h-704v768h704v-768zM295 320h448v-64h-448v64zM295 192h448v-64h-448v64zM359 608q0 -40 28 -68t68 -28t68 28t28 68v0q0 40 -28 68t-68 28
t-68 -28t-28 -68v0zM519 512h-128q-39 0 -67.5 -19t-28.5 -45v-64h320v64q0 26 -28 45t-68 19z" />
    <glyph glyph-name="maintain" unicode="&#xe66f;" horiz-adv-x="1039" 
d="M968 896l-448 -128l-448 128q-5 -52 0 -128l448 -140l448 140q2 34 2 66t-1 47zM80 701q6 -59 15 -117t26 -129.5t39.5 -136t57 -133t76.5 -125t100 -106.5t126 -82q67 32 125.5 82t100.5 106.5t76.5 125t57 133t39.5 136t26 129.5t15 117l-440 -165z" />
    <glyph glyph-name="tags" unicode="&#xe670;" 
d="M948 811h-216q-38 0 -84 -19.5t-73 -46.5l-362 -361q-26 -27 -26 -65.5t26 -64.5l270 -270q27 -27 65 -27t65 27l362 362q26 27 45.5 73t19.5 84v215q0 38 -27 65.5t-65 27.5zM824.5 503q-38.5 0 -65.5 27t-27 65.5t27 65.5t65.5 27t65.5 -27t27 -65.5t-27 -65.5
t-65.5 -27zM78 297l329 -329q-26 -14 -56.5 -9.5t-52.5 25.5l-269 270q-27 26 -27 64.5t27 65.5l361 361q27 27 73.5 46.5t84.5 19.5l-470 -470q-9 -10 -9 -22.5t9 -21.5z" />
    <glyph glyph-name="text-5" unicode="&#xe671;" horiz-adv-x="1037" 
d="M899 708l-121 120q-28 28 -76 48t-87 20h-448q-40 0 -68.5 -28t-28.5 -68v-832q0 -40 28.5 -68t68.5 -28h704q39 0 67.5 28t28.5 68v576q0 40 -20 88t-48 76zM647 760l6 -2q25 -10 35 -20l120 -121q10 -10 20 -34q2 -5 3 -7h-184v184v0zM839 0h-641v768h385v-256h256
v-512z" />
    <glyph glyph-name="paper-3" unicode="&#xe672;" 
d="M841 640h-192v64l-192 192h-448v-768h384v-256h640v576zM841 550l101 -102h-101v102zM457 806l101 -102h-101v102zM73 832h320v-192h192v-448h-512v640zM969 -64h-512v192h192v448h128v-192h192v-448z" />
    <glyph glyph-name="text-6" unicode="&#xe673;" 
d="M901 708l-120 120q-28 28 -76 48t-88 20h-448q-40 0 -68 -28t-28 -68v-832q0 -40 28 -68t68 -28h704q40 0 68 28t28 68v576q0 40 -20 88t-48 76zM649 760q3 -1 7 -2q24 -10 34 -20l121 -121q10 -10 20 -34q2 -5 2 -7h-184v184zM841 0h-640v768h384v-256h256v-512v0z
M265 384h512v-64h-512v64zM265 256h512v-64h-512v64zM265 128h512v-64h-512v64z" />
    <glyph glyph-name="upload" unicode="&#xe674;" 
d="M906 479q4 17 4 35q0 67 -47.5 114.5t-114.5 47.5q-21 0 -42 -6q-19 60 -70 97.5t-115 37.5q-66 0 -117.5 -39t-69.5 -101q-35 11 -72 11v0q-108 0 -184 -76t-76 -183.5t76 -183.5t184 -76h129v-194h260v194h226q68 0 115 47.5t47 114.5q0 60 -38 105t-95 55zM586 222
v-195h-130v195h-162l227 227l227 -227h-162z" />
    <glyph glyph-name="video-" unicode="&#xe675;" horiz-adv-x="1050" 
d="M1007 745q-230 33 -482 33t-481 -33q-44 -172 -44 -361t44 -361q229 -33 481 -33t482 33q44 172 44 361t-44 361zM394 187v394l328 -197z" />
    <glyph glyph-name="video-1" unicode="&#xe676;" 
d="M0 775v-782h1042v782h-1042zM195 58h-130v131h130v-131zM195 319h-130v130h130v-130zM195 579h-130v131h130v-131zM781 58h-521v652h521v-652zM977 58h-131v131h131v-131zM977 319h-131v130h131v-130zM977 579h-131v131h131v-131zM391 579v-390l260 195z" />
    <glyph glyph-name="warning" unicode="&#xe677;" horiz-adv-x="1045" 
d="M512 737l-345 -737h690zM512 896q36 0 61 -45l437 -871q25 -44 6.5 -76t-69.5 -32h-870q-51 0 -69.5 32t6.5 76l437 871q25 45 61 45zM448 128q0 -27 19 -45.5t45.5 -18.5t45 18.5t18.5 45.5t-18.5 45.5t-45 18.5t-45.5 -18.5t-19 -45.5zM512 512q26 0 45 -19t19 -45
l-20 -192h-88l-20 192q0 26 19 45t45 19z" />
    <glyph glyph-name="text-7" unicode="&#xe678;" horiz-adv-x="1036" 
d="M902 896h-768q-39 0 -67.5 -28t-28.5 -68v-832q0 -40 28.5 -68t67.5 -28h768q40 0 68 28t28 68v832q0 40 -28 68t-68 28zM870 0h-704v768h704v-768v0zM294 448h448v-64h-448v64zM294 320h448v-64h-448v64zM294 192h448v-64h-448v64zM294 576h448v-64h-448v64z" />
    <glyph glyph-name="tag" unicode="&#xe679;" horiz-adv-x="1038" 
d="M935 896h-288q-40 0 -88.5 -20t-76.5 -48l-447 -447q-28 -28 -28 -68t28 -68l345 -345q28 -28 68 -28t68 28l447 447q28 28 48 76.5t20 87.5v289q0 40 -28 68t-68 28zM807.5 576q-39.5 0 -68 28t-28.5 68t28.5 68t68 28t67.5 -28t28 -68t-28 -68t-67.5 -28z" />
    <glyph glyph-name="column-chart" unicode="&#xe67a;" 
d="M0 91h1042v-130h-1042v130zM130 351h130v-195h-130v195zM326 612h130v-456h-130v456zM521 417h130v-261h-130v261zM716 807h130v-651h-130v651z" />
    <glyph glyph-name="chemistry" unicode="&#xe67b;" horiz-adv-x="1040" 
d="M964 92l-316 527v213h32q13 0 22.5 9.5t9.5 22.5t-9.5 22.5t-22.5 9.5h-320q-13 0 -22.5 -9.5t-9.5 -22.5t9.5 -22.5t22.5 -9.5h32v-213l-316 -527q-55 -91 -18.5 -155.5t142.5 -64.5h640q106 0 142.5 64.5t-18.5 155.5zM249 256l207 345v231h128v-231l207 -345h-542z
" />
    <glyph glyph-name="compass" unicode="&#xe67c;" horiz-adv-x="1038" 
d="M519 896q-104 0 -199 -40.5t-163.5 -109t-109 -163.5t-40.5 -199t40.5 -199t109 -163.5t163.5 -109t199 -40.5t199 40.5t163.5 109t109 163.5t40.5 199t-40.5 199t-109 163.5t-163.5 109t-199 40.5zM519 -32q-113 0 -208.5 55.5t-151.5 151.5t-56 209t56 209t151.5 151.5
t208.5 55.5t209 -55.5t151.5 -151.5t55.5 -209t-55.5 -209t-151.5 -151.5t-209 -55.5zM615 480l-288 160h-64v-64l160 -288l288 -160h64v64zM519.5 320q-26.5 0 -45.5 19t-19 45t19 45t45.5 19t45 -19t18.5 -45t-18.5 -45t-45 -19z" />
    <glyph glyph-name="earth" unicode="&#xe67d;" 
d="M881 744q72 -72 110.5 -165t38.5 -195t-38.5 -195t-110.5 -165t-165 -110.5t-195 -38.5t-195 38.5t-165 110.5t-110.5 165t-38.5 195t38.5 195t110.5 165t165 110.5t195 38.5t195 -38.5t165 -110.5zM836 69q95 95 121 226q-24 -36 -34 17q-3 25 -16 35t-29 8.5t-37 -1
t-34 8.5q-17 -8 -40.5 -5t-44.5 10.5t-33.5 -2t-6.5 -43.5q5 -10 18 -11t22.5 1.5t25.5 8.5q14 5 19.5 6.5t10.5 -0.5t1.5 -11.5t-14.5 -27.5q-6 -10 -27 -46.5t-35 -62.5t-30.5 -61t-23.5 -64.5t-4 -50.5q1 -38 -16.5 -49t-44 1.5t-48.5 28t-41 33.5q-8 21 -13.5 61
t-9.5 70.5t-17.5 60.5t-37.5 42q-26 1 -43 3t-38.5 7.5t-35.5 15t-27.5 26.5t-21.5 41q-14 47 11 99.5t71 62.5q30 16 49.5 15t41 -14.5t37 -29t39 -29t47.5 -13.5q10 11 36.5 22t47 22t23.5 25q-13 3 -14.5 7.5t5.5 10.5t14.5 13t12.5 13.5t0 13.5t-23 12q-33 -4 -49 -28.5
t1 -49.5q-23 -6 -42 4t-30 27t-26 32t-29.5 20.5t-39.5 -7.5q-1 -34 -38 -37q-28 -2 -36 11q-6 9 15 15q6 2 14 3q16 7 -9 31q-14 13 -7 13q3 1 10 0q28 1 60 20q22 13 11 22q14 7 29 2t27 -14.5t26.5 -8t27.5 22.5q20 32 0.5 41t-46.5 -10q-14 15 14.5 44t67.5 45
q26 11 43 9q18 -21 42.5 -21.5t27.5 25.5q-38 18 -94 30.5t-97 12.5h-1q-148 0 -266 -88q38 -17 13 -36q-13 -38 -53.5 -71t-79.5 -27q-18 -31 -34 -78t-21 -82q21 -7 34.5 -18.5t14.5 -21t-2 -15.5q-33 -29 -45 -81q23 -140 124 -242q63 -63 144.5 -96.5t170.5 -33.5
t170.5 33.5t144.5 96.5z" />
    <glyph glyph-name="chart" unicode="&#xe67e;" horiz-adv-x="1036" 
d="M262 603h-220q-15 0 -25.5 -10.5t-10.5 -25.5v-658q0 -16 10.5 -26.5t25.5 -10.5h220q15 0 25.5 10.5t10.5 26.5v658q0 15 -10.5 25.5t-25.5 10.5zM262 -55h-220v293h220v-293zM627 750h-219q-15 0 -26 -11t-11 -26v-804q0 -16 11 -26.5t26 -10.5h219q15 0 26 10.5
t11 26.5v804q0 15 -11 26t-26 11zM627 -55h-219v366h219v-366zM993 896h-219q-15 0 -26 -10.5t-11 -26.5v-950q0 -16 11 -26.5t26 -10.5h219q15 0 26 10.5t11 26.5v950q0 16 -11 26.5t-26 10.5zM993 -55h-219v439h219v-439z" />
    <glyph glyph-name="airplane" unicode="&#xe67f;" 
d="M776 256l-182 183l437 328l-127 127l-547 -218l-172 172q-37 37 -82.5 45t-72 -18.5t-18.5 -72t45 -82.5l172 -172l-218 -547l127 -127l328 437l183 -182v-255h127l64 191l191 64v127h-255z" />
    <glyph glyph-name="exit-full-screen" unicode="&#xe680;" 
d="M74 320h383v-383l-138 138l-202 -202l-107 107l202 202zM830 182l202 -202l-108 -107l-201 202l-138 -138v383h383zM968 448h-383v383l138 -138l201 202l108 -107l-202 -202zM319 693l138 138v-383h-383l138 138l-202 202l107 107z" />
    <glyph glyph-name="false" unicode="&#xe681;" 
d="M521 891q-103 0 -197 -40t-162 -108t-108 -162t-40 -197t40 -197t108 -162t162 -108t197 -40t197 40t162 108t108 162t40 197t-40 197t-108 162t-162 108t-197 40zM775 548l-164 -164l164 -164v-90h-90l-164 164l-164 -164h-90v90l164 164l-164 164v90h90l164 -164
l164 164h90v-90v0z" />
    <glyph glyph-name="electric" unicode="&#xe682;" 
d="M393 896l-384 -512h384l-256 -512l896 640h-512l384 384h-512z" />
    <glyph glyph-name="line-chart" unicode="&#xe683;" 
d="M137 0h896v-128h-1024v1024h128v-896zM297 64q-40 0 -68 28t-28 68t28 68t68 28h8l103 172q-15 23 -15 52q0 40 28 68t68 28t68 -28t28 -68q0 -29 -16 -52l104 -172h8h6l171 298q-17 24 -17 54v0q0 40 28 68t68 28t68 -28t28 -68t-28 -68t-68 -28h-6l-171 -298
q17 -24 17 -54v0q0 -40 -28 -68t-68 -28t-68 28t-28 68q0 29 15 52l-103 172h-8h-8l-104 -172q16 -23 16 -52q0 -40 -28 -68t-68 -28z" />
    <glyph glyph-name="fire" unicode="&#xe684;" 
d="M328 -125q-25 51 -33.5 94.5t-1 80t20 64t34.5 59.5q26 37 44 78.5t23 64.5l5 23q2 -2 4.5 -6.5t10 -19.5t10.5 -31t6 -41.5t-4 -50.5q54 60 73.5 146.5t8.5 136.5q66 -47 113.5 -118.5t69 -152t15 -167t-44.5 -160.5q88 50 148.5 108.5t89.5 115.5t38.5 117t0 115
t-29 107.5t-45.5 95.5t-53.5 79t-49 58t-34.5 32q12 -28 16 -61.5t-4.5 -68t-31.5 -54.5q-23 87 -61 157.5t-74.5 109t-72.5 64.5t-55 34.5t-22 8.5q29 -194 -193 -466q-3 57 -10.5 92t-30.5 77q-3 -50 -28 -106t-54 -115t-38 -106q-25 -121 28.5 -213t211.5 -181z" />
    <glyph glyph-name="full-screen" unicode="&#xe685;" 
d="M1033 896v-384l-138 138l-212 -212l-108 108l212 212l-138 138h384zM255 758l212 -212l-108 -108l-212 212l-138 -138v384h384zM895 118l138 138v-384h-384l138 138l-212 212l108 108zM467 222l-212 -212l138 -138h-384v384l138 -138l212 212z" />
    <glyph glyph-name="magic-wand" unicode="&#xe686;" 
d="M267 705l-128 127h-63v-63l127 -127zM330 896h64v-127h-64v127zM584 578h128v-64h-128v64zM648 769v63h-64l-127 -127l64 -63zM12 578h127v-64h-127v64zM330 324h64v-128h-64v128zM76 324v-64h63l128 127l-64 64zM1016 20l-632 632q-14 14 -34 14t-34 -14l-60 -60
q-13 -14 -13 -34t13 -34l633 -632q14 -14 33.5 -14t33.5 14l60 60q14 14 14 34t-14 34zM489 355l-191 191l64 64l191 -191z" />
    <glyph glyph-name="forward" unicode="&#xe687;" horiz-adv-x="1038" 
d="M567 648v248l384 -384l-384 -384v254q-93 2 -164 -14.5t-114 -46t-69 -71t-32.5 -88t0 -97.5t23.5 -99t42 -94q-52 56 -89 121t-56 130.5t-20 131t15.5 124.5t55 109.5t94 86.5t136 55.5t178.5 17.5z" />
    </font>
</defs>
</svg>
